<svg id="Layer_2" data-name="Layer 2"
	xmlns="http://www.w3.org/2000/svg" viewBox="0 0 654.32 674.13">
	<defs>
		<style>.cls-1{fill:#362b7a;}.cls-2{fill:none;}</style>
	</defs>
	<path class="cls-1" d="M1165.86,518.39c-88-53.19-251.31-100.89-407.24-49.52S602.7,632.13,602.7,632.13c-3.65,20.51-7.59,59.17,7.34,102.72,15.81,46.13,44.47,73.5,68.1,96.08A337.81,337.81,0,0,0,777,896.28,479.94,479.94,0,0,0,875.38,919c41.3,5,95.42,11.62,158.49-8.11,84.74-26.5,132.31-85,148.5-102.65C1301.61,678,1253.91,571.59,1165.86,518.39ZM904.52,897l-4.65-2.55C639.39,751.36,736.61,514.73,736.61,514.73c65.32.91,159.59,27.51,209.12,144.91C988.55,761.15,923,869.52,904.52,897Zm241.16-149.31C1109,846.75,991.59,890.78,991.59,890.78c64.21-73.38,84.95-102.73,84.95-102.73,61.06-91.81,47.13-248,47.13-248C1138.34,549.17,1182.37,648.64,1145.68,747.69Z" transform="translate(-599.34 -250.1)"/>
	<path class="cls-2" d="M904.52,897l-4.65-2.55C639.39,751.36,736.61,514.73,736.61,514.73c65.32.91,159.59,27.51,209.12,144.91C988.55,761.15,923,869.52,904.52,897Z" transform="translate(-599.34 -250.1)"/>
	<path class="cls-2" d="M1145.68,747.69C1109,846.75,991.59,890.78,991.59,890.78c64.21-73.38,84.95-102.73,84.95-102.73,61.06-91.81,47.13-248,47.13-248C1138.34,549.17,1182.37,648.64,1145.68,747.69Z" transform="translate(-599.34 -250.1)"/>
	<ellipse class="cls-1" cx="653.45" cy="453.24" rx="61.08" ry="34.26" transform="translate(-540.31 731.43) rotate(-76.37)"/>
	<ellipse class="cls-1" cx="995.76" cy="342.9" rx="61.04" ry="95.19" transform="translate(-656.04 54.64) rotate(-16.92)"/>
	<ellipse class="cls-1" cx="1208.44" cy="477.45" rx="33.24" ry="63.26" transform="translate(-688.35 297.49) rotate(-24.65)"/>
</svg>