<?xml version="1.0" encoding="UTF-8" standalone="no"?>
<svg xmlns:svg="http://www.w3.org/2000/svg"
   xmlns="http://www.w3.org/2000/svg" version="1.1" width="782.31244" height="171.03143" id="svg3595">
   <defs id="defs3597" />
   <g transform="translate(51.156225,-469.70361)" id="layer1">
      <path d="m 682.1538,470.70361 c -29.2,0 -58.40376,16.87533 -58.40376,49.91737 0,28.0473 18.44925,37.27189 38.42817,44.9561 17.28933,6.91577 34.5547,11.94719 34.5547,26.54716 0,14.59997 -11.91235,21.10717 -29.20181,21.10717 -14.6,0 -30.32498,-5.37178 -41.08283,-13.05598 l -3.87334,30.3334 c 11.91054,5.37894 27.6667,9.22622 44.95617,9.22622 35.73147,0 62.62512,-17.26701 62.62512,-50.30905 0,-26.51048 -16.12146,-36.9101 -37.25307,-46.13113 -17.28932,-6.53157 -36.12141,-10.75106 -36.12141,-26.50365 0,-14.59997 16.15976,-19.97565 28.07029,-19.97565 13.44732,0 23.79698,2.71577 34.55483,8.09471 l 2.69824,-24.98045 c -10.75785,-5.37894 -22.66184,-9.22622 -39.9513,-9.22622 z m -671.208036,3.82975 -61.101989,160.24042 33.031634,0 46.479289,-127.20878 47.654334,127.20878 36.121548,0 -62.233512,-160.24042 -39.951304,0 z m 79.51093,0 10.749426,24.98045 43.82458,0 0,135.25997 31.50843,0 0,-135.25997 46.4793,0 0,-24.98045 -132.561736,0 z m 152.145706,0 0,160.24042 31.90012,0 0,-74.54966 59.1436,74.54966 41.51802,0 -68.7615,-84.55924 66.06326,-75.68118 -38.81978,0 -59.1436,68.76151 0,-68.76151 -31.90012,0 z m 151.40587,0 0,160.24042 31.11676,0 0,-160.24042 -31.11676,0 z m 67.97815,0 0,160.24042 29.20188,0 0,-118.37424 64.14839,118.37424 39.60315,0 0,-160.24042 -30.72508,0 0,117.59088 -63.40848,-117.59088 -38.81986,0 z" id="path36" style="fill:#394a58;fill-opacity:1;fill-rule:evenodd;stroke:none" />
   </g>
</svg>
