<?xml version="1.0" standalone="no"?>
<!DOCTYPE svg PUBLIC "-//W3C//DTD SVG 20010904//EN"
 "http://www.w3.org/TR/2001/REC-SVG-20010904/DTD/svg10.dtd">
<svg version="1.0" xmlns="http://www.w3.org/2000/svg"
 width="261.000000pt" height="98.000000pt" viewBox="0 0 261.000000 98.000000"
 preserveAspectRatio="xMidYMid meet">

<g transform="translate(0.000000,98.000000) scale(0.100000,-0.100000)"
fill="#000000" stroke="none">
<path d="M1862 720 c-155 -115 -282 -212 -282 -216 0 -9 70 -104 77 -104 3 0
-12 23 -32 51 -20 28 -34 54 -31 57 14 13 552 412 557 412 5 0 402 -544 407
-560 2 -5 -58 -55 -132 -111 -75 -56 -136 -104 -136 -106 0 -3 6 -1 13 4 6 5
72 54 145 107 l132 98 -30 41 c-283 391 -387 531 -395 534 -6 2 -138 -91 -293
-207z"/>
<path d="M2109 833 c-11 -15 -11 -16 1 -6 11 10 18 9 34 -5 21 -17 21 -17 2 6
-23 26 -20 26 -37 5z"/>
<path d="M2230 706 c0 -2 8 -10 18 -17 15 -13 16 -12 3 4 -13 16 -21 21 -21
13z"/>
<path d="M2330 576 c0 -2 8 -10 18 -17 15 -13 16 -12 3 4 -13 16 -21 21 -21
13z"/>
<path d="M1699 523 c-13 -16 -12 -17 4 -4 16 13 21 21 13 21 -2 0 -10 -8 -17
-17z"/>
<path d="M2360 536 c0 -2 8 -10 18 -17 15 -13 16 -12 3 4 -13 16 -21 21 -21
13z"/>
<path d="M1670 466 c0 -2 8 -10 18 -17 15 -13 16 -12 3 4 -13 16 -21 21 -21
13z"/>
<path d="M2430 446 c0 -2 8 -10 18 -17 15 -13 16 -12 3 4 -13 16 -21 21 -21
13z"/>
<path d="M2471 393 c7 -12 15 -20 18 -17 3 2 -3 12 -13 22 -17 16 -18 16 -5
-5z"/>
<path d="M2293 310 c0 -47 2 -66 4 -42 2 23 2 61 0 85 -2 23 -4 4 -4 -43z"/>
<path d="M2399 313 c-13 -16 -12 -17 4 -4 9 7 17 15 17 17 0 8 -8 3 -21 -13z"/>
<path d="M2359 283 c-13 -16 -12 -17 4 -4 16 13 21 21 13 21 -2 0 -10 -8 -17
-17z"/>
<path d="M2319 253 c-13 -16 -12 -17 4 -4 16 13 21 21 13 21 -2 0 -10 -8 -17
-17z"/>
<path d="M94 178 c-15 -46 -29 -89 -32 -95 -3 -10 13 -13 63 -13 63 0 69 2
100 33 33 33 53 92 41 122 -8 21 -49 35 -101 35 l-43 0 -28 -82z m116 11 c0
-41 -29 -79 -62 -79 -15 0 -15 4 0 50 13 41 20 50 39 50 17 0 23 -6 23 -21z"/>
<path d="M353 240 c-56 -33 -87 -106 -64 -148 17 -31 72 -38 117 -16 48 24 74
60 81 111 4 34 2 43 -18 57 -31 22 -77 20 -116 -4z m77 -50 c0 -33 -22 -70
-46 -76 -45 -11 -56 15 -29 66 12 23 22 30 45 30 23 0 30 -5 30 -20z"/>
<path d="M545 248 c-18 -49 -55 -163 -55 -170 0 -4 33 -8 74 -8 65 0 74 2 79
20 5 18 0 20 -39 20 -24 0 -44 2 -44 3 0 2 9 30 20 62 11 32 20 64 20 72 0 17
-49 17 -55 1z"/>
<path d="M757 228 c-69 -93 -107 -148 -107 -153 0 -12 58 -4 64 10 8 21 76 21
76 0 0 -10 10 -15 31 -15 l32 0 -7 52 c-3 29 -6 72 -6 96 0 40 -1 42 -29 42
-22 0 -36 -9 -54 -32z m33 -58 c0 -24 -4 -30 -21 -30 -20 0 -20 1 -2 30 9 17
19 30 20 30 2 0 3 -13 3 -30z"/>
<path d="M911 238 c-7 -20 -5 -23 20 -26 16 -2 29 -5 29 -6 0 -2 -9 -29 -20
-61 -26 -74 -25 -77 7 -73 23 3 30 12 51 70 22 61 27 67 56 70 23 2 32 8 34
26 3 21 1 22 -83 22 -80 0 -86 -2 -94 -22z"/>
<path d="M1160 232 c-16 -16 -31 -44 -35 -63 -18 -94 71 -142 136 -73 32 34
16 42 -21 10 -37 -31 -39 -31 -68 -10 -32 22 -31 86 3 119 29 30 59 32 82 5
10 -11 21 -20 25 -20 14 0 8 20 -12 40 -29 29 -76 26 -110 -8z"/>
<path d="M1343 173 c-60 -110 -57 -103 -40 -103 7 0 19 11 25 25 10 21 19 25
52 25 33 0 40 -3 40 -19 0 -20 17 -37 27 -28 5 5 -12 130 -23 170 -10 35 -34
15 -81 -70z m69 7 c3 -38 2 -40 -24 -40 -16 0 -28 2 -28 5 0 11 34 75 41 75 4
0 9 -18 11 -40z"/>
<path d="M1516 239 c-42 -187 -40 -169 -21 -169 9 0 15 9 15 23 0 34 11 44 58
50 50 6 82 30 82 61 0 37 -16 49 -74 54 -51 4 -55 3 -60 -19z m111 -24 c6 -21
-23 -46 -60 -52 -33 -5 -37 -3 -37 15 0 43 11 53 53 50 22 -2 42 -8 44 -13z"/>
<path d="M1696 243 c-2 -10 -10 -45 -16 -78 -6 -33 -14 -68 -16 -77 -3 -11 0
-18 9 -18 10 0 19 25 31 83 9 45 16 88 16 95 0 18 -18 15 -24 -5z"/>
<path d="M1755 250 c-8 -13 20 -24 40 -16 19 7 19 -11 0 -89 -18 -75 -18 -75
-1 -75 8 0 16 16 20 43 4 23 11 59 17 80 8 32 14 37 39 37 20 0 30 5 30 15 0
12 -14 15 -69 15 -39 0 -73 -5 -76 -10z"/>
<path d="M1931 169 c-28 -51 -51 -93 -51 -95 0 -2 6 -4 13 -4 8 0 19 11 25 25
10 21 19 25 52 25 33 0 40 -3 40 -19 0 -20 17 -38 26 -28 4 4 -10 114 -21 165
-10 41 -33 22 -84 -69z m69 11 c0 -36 -2 -40 -25 -40 -30 0 -30 0 -8 45 22 46
33 44 33 -5z"/>
<path d="M2106 243 c-6 -18 -36 -161 -36 -169 0 -2 27 -4 60 -4 33 0 60 4 60
10 0 6 -20 10 -45 10 -25 0 -45 3 -45 8 1 4 7 36 15 72 8 36 14 71 15 78 0 18
-18 15 -24 -5z"/>
</g>
</svg>
