<?xml version="1.0" encoding="UTF-8" standalone="no"?>
<!-- Created with Inkscape (http://www.inkscape.org/) -->
<svg
   xmlns:svg="http://www.w3.org/2000/svg"
   xmlns="http://www.w3.org/2000/svg"
   version="1.0"
   width="797.59839"
   height="153.63779"
   id="svg1978">
  <defs
     id="defs1980">
  
  
 
   
   
  
    
    
    
    
    
    
    
    
    
    
    
   </defs>
  <g
     transform="translate(222.6327,-275.4212)"
     id="layer1">
    <g
       transform="translate(5.314294,5.30821)"
       id="g2901">
      <path
         d="M -203.52279,417.0806 L -222.63273,417.0806 L -222.63273,359.02721 L -203.52279,359.02721 C -183.305,359.02721 -172.46912,368.90414 -172.46912,388.0141 C -172.46912,406.96133 -181.47018,417.0806 -203.52279,417.0806 z M -204.90756,367.85863 L -211.17368,367.85863 L -211.17368,408.24572 L -205.04603,408.24572 C -189.25956,408.56767 -184.17049,400.86139 -184.17049,388.09371 C -184.17049,374.04168 -191.47522,367.85863 -204.90756,367.85863"
         style="fill:#1c62b7;fill-rule:nonzero;stroke:none"
         id="path2677" />
      <path
         d="M -154.95167,392.59079 C -154.64008,387.29054 -152.04364,382.39188 -146.05446,382.39188 C -140.23837,382.39188 -137.36497,386.72626 -137.60731,392.59079 L -154.95167,392.59079 z M -145.70828,375.5684 C -160.97545,375.5684 -166.27223,386.40774 -166.27223,396.60319 C -166.27223,408.73037 -160.1792,417.8007 -147.16229,418.20228 C -136.81107,418.28535 -127.6369,415.1523 -127.01375,403.83174 L -137.60731,403.83174 C -137.60731,408.40842 -141.31158,411.37878 -145.63903,411.37878 C -152.94373,411.37878 -155.26323,405.9989 -155.3671,399.4143 L -126.11363,399.33466 C -125.24814,387.29054 -130.4757,375.5684 -145.70828,375.5684"
         style="fill:#1c62b7;fill-rule:nonzero;stroke:none"
         id="path2679" />
      <path
         d="M -79.13502,417.0806 L -90.074768,417.0806 L -90.144016,410.49598 C -91.97884,415.71312 -97.067905,418.36499 -103.2994,418.36499 C -110.70797,418.36499 -117.7011,413.86791 -117.77035,403.10818 L -117.77035,377.01203 L -106.69211,377.01203 L -106.69211,401.58145 C -106.76136,407.36292 -104.5111,410.57561 -99.075821,410.65522 C -94.159876,410.65522 -90.144016,407.84414 -90.144016,400.05822 L -90.144016,377.01203 L -79.13502,377.01203 L -79.13502,417.0806"
         style="fill:#1c62b7;fill-rule:nonzero;stroke:none"
         id="path2681" />
      <path
         d="M -64.941029,377.17474 L -64.941029,370.82899 L -54.243621,365.21026 L -54.243621,377.17474 L -44.030866,377.17474 L -44.030866,384.96065 L -54.243621,384.96065 L -54.243621,404.31293 C -54.243621,408.24572 -52.89345,410.49598 -48.877591,410.65522 C -47.354328,410.65522 -45.969561,410.81449 -43.961645,410.25363 L -43.961645,417.16024 C -49.189179,417.88377 -55.212955,419.24779 -60.198176,416.59592 C -63.971695,414.59147 -64.941029,411.0568 -64.941029,405.43807 L -64.941029,384.96065 L -73.526649,384.96065 L -73.526649,377.17474 L -64.941029,377.17474"
         style="fill:#1c62b7;fill-rule:nonzero;stroke:none"
         id="path2683" />
      <path
         d="M -2.4528793,399.81588 C -0.68730374,403.35052 -0.75652408,408.00684 -2.9375601,411.21953 C -6.7110792,416.99751 -14.915891,418.4446 -21.251255,418.28535 C -30.252308,417.72107 -38.249431,415.39464 -37.868594,404.6349 L -26.928845,404.6349 C -27.032717,409.29123 -24.12466,410.97719 -19.970332,411.13644 C -15.954473,411.13644 -11.938613,409.77244 -11.938613,406.07853 C -11.938613,403.10818 -14.742798,401.82379 -18.343225,401.02063 C -22.462929,400.13783 -25.405583,399.73624 -30.009995,397.88757 C -33.679642,396.12197 -37.314693,393.15161 -37.314693,387.53288 C -37.314693,382.8731 -33.679642,379.34192 -28.936789,377.41361 C -25.751795,376.04959 -21.805156,375.64801 -18.412473,375.64801 C -10.796187,375.64801 -2.5221273,378.29642 -3.0068081,387.93101 L -13.288784,387.93101 C -13.288784,386.48738 -13.600344,384.88102 -14.812046,383.91861 C -17.062303,381.91069 -23.986192,381.66835 -26.132604,384.96065 C -28.55598,390.58285 -21.078162,390.98446 -12.804103,393.23125 C -7.5765688,394.436 -4.0453901,396.60319 -2.4528793,399.81588"
         style="fill:#1c62b7;fill-rule:nonzero;stroke:none"
         id="path2685" />
      <path
         d="M 24.931116,375.48531 C 33.689857,375.48531 42.760158,379.50117 42.760158,390.50324 L 31.993502,390.42014 C 31.993502,385.28263 29.189316,382.14954 23.892534,382.39188 C 22.507768,382.47152 21.053725,382.95274 19.876675,383.59666 C 16.553213,385.52494 15.514631,390.90482 15.514631,396.28467 C 15.514631,401.98304 16.899397,407.52562 19.391994,409.5301 C 21.053725,411.13644 24.031003,411.62112 26.592848,411.13644 C 30.851048,410.41634 32.13197,406.23778 32.235842,402.62696 L 42.760158,402.54735 C 42.898626,414.02715 33.516737,418.36499 23.719442,418.20228 C 10.633281,417.72107 4.6094782,409.21159 4.6094782,396.60319 C 4.6094782,383.83897 11.914204,375.48531 24.931116,375.48531"
         style="fill:#1c62b7;fill-rule:nonzero;stroke:none"
         id="path2687" />
      <path
         d="M 51.241906,359.10684 L 62.320151,359.10684 L 62.320151,383.35432 C 65.22818,378.21678 69.555628,375.96999 75.406311,375.96999 C 82.814881,375.96999 89.808019,381.50908 89.808019,389.45773 L 89.808019,417.0806 L 78.86827,417.0806 L 78.86827,392.50769 C 78.86827,387.0482 76.548765,383.43739 71.321204,383.43739 C 66.439855,383.43739 62.250903,386.64662 62.250903,394.03442 L 62.250903,417.0806 L 51.241906,417.0806 L 51.241906,359.10684"
         style="fill:#1c62b7;fill-rule:nonzero;stroke:none"
         id="path2689" />
      <path
         d="M 109.7142,392.59079 C 110.02578,387.29054 112.58763,382.39188 118.61141,382.39188 C 124.39286,382.39188 127.3009,386.72626 127.05857,392.59079 L 109.7142,392.59079 z M 118.95761,375.5684 C 103.69042,375.5684 98.393639,386.40774 98.393639,396.60319 C 98.393639,408.73037 104.48666,417.8007 117.50359,418.20228 C 127.85481,418.28535 137.02897,415.1523 137.65212,403.83174 L 127.05857,403.83174 C 127.05857,408.40842 123.35428,411.37878 119.02685,411.37878 C 111.72214,411.37878 109.40264,405.9989 109.29876,399.4143 L 138.55223,399.33466 C 139.41772,387.29054 134.19018,375.5684 118.95761,375.5684"
         style="fill:#1c62b7;fill-rule:nonzero;stroke:none"
         id="path2691" />
      <path
         d="M 206.85645,415.39464 C 203.11755,416.59592 198.27082,417.0806 193.0779,417.0806 L 172.0985,417.0806 L 172.0985,359.18645 L 194.42806,359.18645 C 204.39847,359.18645 214.81893,362.31951 215.23436,373.48082 C 215.4767,380.54667 210.66459,385.04029 204.64081,387.0482 C 209.27981,388.25295 213.05334,389.61697 215.61518,393.95478 C 217.86544,397.80794 218.03854,402.94894 216.20371,407.20367 C 214.26502,411.21953 211.28774,413.86791 206.85645,415.39464 z M 194.42806,367.85863 L 183.10749,367.85863 L 183.10749,382.8731 L 194.60116,382.8731 C 200.62495,382.8731 203.7407,380.38397 203.7407,375.48531 C 203.7407,370.90862 200.14027,367.85863 194.42806,367.85863 z M 195.5705,391.54528 L 183.10749,391.46565 L 183.10749,408.48806 L 195.15507,408.48806 C 203.18679,408.48806 205.74863,404.55181 205.74863,399.65661 C 205.74863,395.88309 203.01369,391.46565 195.5705,391.54528"
         style="fill:#1c62b7;fill-rule:nonzero;stroke:none"
         id="path2693" />
      <path
         d="M 241.89136,411.29914 C 237.80626,410.97719 235.3829,408.96925 235.3829,405.11612 C 235.45214,396.68628 246.14955,397.56906 251.68867,397.56906 C 251.93101,404.23332 251.37709,411.13644 241.89136,411.29914 z M 262.21299,388.0141 C 262.21299,379.82311 253.38502,375.72765 243.17228,375.80725 C 233.44421,375.96999 226.38183,379.09958 226.24336,388.49529 L 236.90615,388.49529 C 236.66382,384.15749 239.64109,381.91069 243.58771,381.83106 C 249.50764,381.83106 252.17334,384.55907 251.61943,391.3064 C 245.73412,391.62492 237.8755,391.22331 232.02481,393.95478 C 227.76661,395.96272 224.47776,399.73624 224.47776,405.75658 C 224.47776,413.46633 229.84378,418.12265 237.7024,418.36499 C 243.34538,418.92582 249.74998,416.43668 252.24258,411.21953 L 252.65801,417.0806 L 262.21299,417.0806 C 262.21299,407.36292 262.21299,397.80794 262.21299,388.0141"
         style="fill:#1c62b7;fill-rule:nonzero;stroke:none"
         id="path2695" />
      <path
         d="M 272.87579,377.01203 L 283.95402,377.01203 L 283.95402,383.43739 C 286.86205,378.21678 292.15883,375.96999 298.11338,375.96999 C 304.76032,375.96999 311.58036,379.82311 311.58036,389.45773 L 311.58036,417.0806 L 300.50213,417.0806 L 300.50213,392.50769 C 300.57136,387.29054 298.00952,383.43739 292.95508,383.43739 C 287.96988,383.43739 283.88478,386.64662 283.88478,394.03442 L 283.88478,417.0806 L 272.87579,417.0806 L 272.87579,377.01203"
         style="fill:#1c62b7;fill-rule:nonzero;stroke:none"
         id="path2697" />
      <path
         d="M 350.35417,417.0806 L 333.49448,394.11405 L 348.76167,377.01203 L 361.77859,377.01203 L 345.95749,393.71247 L 364.58277,417.0806 L 350.35417,417.0806 z M 322.27777,359.10684 L 333.18291,359.10684 L 333.18291,417.0806 L 322.27777,417.0806 L 322.27777,359.10684 z "
         style="fill:#1c62b7;fill-rule:nonzero;stroke:none"
         id="path2699" />
      <path
         d="M 423.33202,275.42118 L 564.33713,275.42118 L 564.33713,416.99751 L 423.33202,416.99751 L 423.33202,275.42118 z M 509.01521,308.9536 L 453.93563,382.87656 L 478.82703,382.87656 L 534.11433,308.9536 L 509.01521,308.9536 z M 442.96126,397.38904 L 544.70789,397.38904 L 544.70789,295.03311 L 442.96126,295.03311 L 442.96126,397.38904 z "
         style="fill:#1c62b7;fill-rule:nonzero;stroke:none"
         id="path2701" />
    </g>
  </g>
</svg>
