<?xml version="1.0" encoding="UTF-8" standalone="no"?>
<!-- Created with Inkscape (http://www.inkscape.org/) -->

<svg
   xmlns:dc="http://purl.org/dc/elements/1.1/"
   xmlns:cc="http://creativecommons.org/ns#"
   xmlns:rdf="http://www.w3.org/1999/02/22-rdf-syntax-ns#"
   xmlns:svg="http://www.w3.org/2000/svg"
   xmlns="http://www.w3.org/2000/svg"
   xmlns:sodipodi="http://sodipodi.sourceforge.net/DTD/sodipodi-0.dtd"
   xmlns:inkscape="http://www.inkscape.org/namespaces/inkscape"
   width="171.39999"
   height="38.014839"
   viewBox="0 0 45.349582 10.058093"
   version="1.1"
   id="svg7794"
   inkscape:version="0.92.0 r15299"
   sodipodi:docname="dr reddys.svg">
  <defs
     id="defs7788" />
  <sodipodi:namedview
     id="base"
     pagecolor="#ffffff"
     bordercolor="#666666"
     borderopacity="1.0"
     inkscape:pageopacity="0.0"
     inkscape:pageshadow="2"
     inkscape:zoom="5.2640836"
     inkscape:cx="85.2"
     inkscape:cy="18.507466"
     inkscape:document-units="mm"
     inkscape:current-layer="layer1"
     showgrid="false"
     fit-margin-top="0"
     fit-margin-left="0"
     fit-margin-right="0"
     fit-margin-bottom="0"
     units="px"
     inkscape:window-width="1280"
     inkscape:window-height="744"
     inkscape:window-x="-4"
     inkscape:window-y="-4"
     inkscape:window-maximized="1" />
  <metadata
     id="metadata7791">
    <rdf:RDF>
      <cc:Work
         rdf:about="">
        <dc:format>image/svg+xml</dc:format>
        <dc:type
           rdf:resource="http://purl.org/dc/dcmitype/StillImage" />
        <dc:title></dc:title>
      </cc:Work>
    </rdf:RDF>
  </metadata>
  <g
     inkscape:label="Layer 1"
     inkscape:groupmode="layer"
     id="layer1"
     transform="translate(-117.30869,-158.79106)">
    <g
       id="g7902"
       transform="translate(0.13229086,-0.13228901)">
      <path
         d="m 117.46285,162.73688 c -0.084,0 -0.15416,0.0698 -0.15416,0.15381 v 4.49192 c 0,0.085 0.0702,0.15381 0.15416,0.15381 m 1.29011,-4.79954 h -1.29011 c -0.084,0 -0.15416,0.0698 -0.15416,0.15381 v 4.49192 c 0,0.085 0.0702,0.15381 0.15416,0.15381 h 1.28341 c 1.36771,0 2.37701,-0.87947 2.37701,-2.39642 0,-1.51588 -1.00224,-2.40312 -2.37031,-2.40312 m -0.0406,3.93418 h -0.4699 v -3.06705 h 0.47731 c 0.78493,0 1.4351,0.49424 1.4351,1.53599 0,1.04317 -0.65652,1.53106 -1.44251,1.53106"
         style="fill:#4b2a91;fill-opacity:1;fill-rule:nonzero;stroke:none;stroke-width:0.35277778"
         id="path5605"
         inkscape:connector-curvature="0" />
      <path
         d="m 124.17728,166.35109 c 0.34537,0 0.62301,0.27764 0.62301,0.6163 0,0.33796 -0.27764,0.61595 -0.62301,0.61595 -0.33867,0 -0.6156,-0.27799 -0.6156,-0.61595 0,-0.33866 0.27693,-0.6163 0.6156,-0.6163"
         style="fill:#4b2a91;fill-opacity:1;fill-rule:nonzero;stroke:none;stroke-width:0.35277778"
         id="path5609"
         inkscape:connector-curvature="0" />
      <path
         d="m 128.14673,165.57253 c 0.629,-0.18203 1.02235,-0.68968 1.02235,-1.35925 0,-0.83362 -0.59549,-1.47602 -1.53,-1.47602 h -1.72085 c -0.085,0 -0.15416,0.0699 -0.15416,0.15381 v 4.49156 c 0,0.085 0.0691,0.15346 0.15416,0.15346 h 0.63289 c 0.0847,0 0.15381,-0.0695 0.15381,-0.15346 v -1.69439 h 0.48718 l 0.86572,1.69439 c 0.0434,0.085 0.14781,0.15346 0.23248,0.15346 h 0.72884 c 0.084,0 0.11889,-0.0695 0.0759,-0.15346 z m -0.68333,-0.68968 h -0.75847 V 163.549 h 0.75847 c 0.47378,0 0.75106,0.26387 0.75106,0.67027 0,0.39335 -0.27728,0.66358 -0.75106,0.66358"
         style="fill:#4b2a91;fill-opacity:1;fill-rule:nonzero;stroke:none;stroke-width:0.35277778"
         id="path5613"
         inkscape:connector-curvature="0" />
      <path
         d="m 123.52852,164.17905 c -0.28399,0 -0.74436,0.0808 -0.94791,0.5207 v -0.34149 c 0,-0.0815 -0.0639,-0.14746 -0.14358,-0.1524 h -0.57538 c -0.0829,0 -0.15135,0.067 -0.15382,0.14923 v 3.02753 c 0.001,0.0836 0.0695,0.15276 0.15382,0.15276 h 0.5916 l 0.001,-0.002 c 0.084,0 0.15381,-0.0691 0.15381,-0.15381 v -1.36736 c 0,-0.7172 0.3997,-0.94051 0.85972,-0.94051 0.0808,0 0.16898,0.006 0.27058,0.0268 v -0.90664 c -0.0681,-0.007 -0.13511,-0.0131 -0.2099,-0.0131"
         style="fill:#4b2a91;fill-opacity:1;fill-rule:nonzero;stroke:none;stroke-width:0.35277778"
         id="path5617"
         inkscape:connector-curvature="0" />
      <path
         d="m 144.55337,164.20622 h -0.65193 c -0.0836,7.1e-4 -0.19121,0.0691 -0.23883,0.1524 l -0.7546,1.7967 -0.81738,-1.79635 c -0.0476,-0.0836 -0.15522,-0.15204 -0.23989,-0.15204 v -7.1e-4 h -0.69603 c -0.084,0 -0.11536,0.0691 -0.067,0.15381 l 1.33985,2.75625 -0.71543,1.57939 c -0.0427,0.0833 -0.008,0.15311 0.0759,0.15311 h 0.6477 c 0.0818,0 0.18062,-0.0646 0.22648,-0.14429 l 1.95756,-4.34622 c 0.0462,-0.0843 0.0169,-0.15134 -0.0663,-0.15205"
         style="fill:#4b2a91;fill-opacity:1;fill-rule:nonzero;stroke:none;stroke-width:0.35277778"
         id="path5621"
         inkscape:connector-curvature="0" />
      <path
         d="m 147.36395,165.51924 -0.47343,-0.1016 c -0.18309,-0.0339 -0.30444,-0.13547 -0.30444,-0.29845 0,-0.18909 0.18944,-0.33091 0.4258,-0.33091 0.29704,0 0.44661,0.15346 0.51153,0.31398 l 10e-4,-0.001 c 0.0233,0.0776 0.0907,0.12594 0.16968,0.10336 l 0.48401,-0.10866 -7e-4,-3.5e-4 c 0.0759,-0.0233 0.11853,-0.10019 0.10442,-0.17533 -0.1016,-0.3556 -0.44909,-0.81527 -1.2767,-0.81527 -0.71755,0 -1.24531,0.4946 -1.24531,1.09008 0,0.46638 0.29069,0.85267 0.93345,0.99413 l 0.44097,0.10231 c 0.25612,0.0533 0.35843,0.17568 0.35843,0.32455 0,0.17569 -0.14288,0.33161 -0.44062,0.33161 -0.35807,0 -0.55175,-0.2032 -0.59796,-0.44062 l -0.001,7.1e-4 c -0.0102,-0.0356 -0.0444,-0.0564 -0.0804,-0.0522 l -0.56586,0.12453 c -0.0765,0.0219 -0.121,0.10054 -0.10548,0.1778 0.10442,0.37853 0.47731,0.87983 1.35749,0.87983 0.87348,0 1.29293,-0.55492 1.29293,-1.09573 0,-0.48719 -0.33161,-0.88724 -0.98813,-1.02235"
         style="fill:#4b2a91;fill-opacity:1;fill-rule:nonzero;stroke:none;stroke-width:0.35277778"
         id="path5625"
         inkscape:connector-curvature="0" />
      <path
         d="m 131.01658,164.10462 c -0.85266,0 -1.63724,0.69003 -1.63724,1.7526 0,1.1236 0.80504,1.77976 1.71838,1.77976 0.76341,0 1.26965,-0.41874 1.47249,-0.9405 0.006,-0.0716 -0.0363,-0.14005 -0.10795,-0.16016 l -0.4833,-0.14358 c -0.0554,-0.0117 -0.11783,0.01 -0.16087,0.0691 -0.12206,0.2413 -0.34431,0.40393 -0.71332,0.40393 -0.44661,0 -0.81915,-0.31785 -0.83925,-0.75777 h 2.24013 c 0.0836,0 0.15135,-0.0684 0.15205,-0.15169 0.002,-0.0402 0.004,-0.0822 0.004,-0.12665 0,-1.06891 -0.6156,-1.72508 -1.64465,-1.72508 m -0.73096,1.38712 c 0.0208,-0.3048 0.27764,-0.65652 0.74437,-0.65652 0.5147,0 0.73166,0.32491 0.74471,0.65652 h -1.48908"
         style="fill:#4b2a91;fill-opacity:1;fill-rule:nonzero;stroke:none;stroke-width:0.35277778"
         id="path5629"
         inkscape:connector-curvature="0" />
      <path
         d="m 136.59682,167.39498 -0.003,-3.10339 v -1.50177 c 0,-0.0854 -0.0692,-0.15452 -0.15382,-0.15452 h -0.57996 c -0.0776,0 -0.1397,0.0603 -0.14993,0.13476 -7.1e-4,0.007 -0.004,0.0123 -0.004,0.0198 v 1.69369 l 0.004,-7.1e-4 v 0.055 c -0.0949,-0.17639 -0.36513,-0.41345 -0.94051,-0.41345 -0.94086,0 -1.59702,0.76517 -1.59702,1.7399 0,1.00788 0.67592,1.7526 1.62419,1.7526 0.44626,0 0.78457,-0.2032 0.93345,-0.46708 0,0.005 7e-4,0.009 7e-4,0.0134 l 0.001,-0.003 c 0,0.0483 0.001,0.0892 0.003,0.12665 0.005,0.0765 0.012,0.14464 0.0201,0.19614 l 7e-4,-0.002 v 0.002 c 0.0127,0.0279 0.0413,0.0501 0.0748,0.0526 h 0.61666 l -0.002,-0.004 c 0.079,0 0.14252,-0.061 0.15169,-0.13758 m -1.69157,-0.58349 c -0.47484,0 -0.82656,-0.35208 -0.82656,-0.94721 0,-0.59549 0.36583,-0.93451 0.82656,-0.93451 0.45967,0 0.81845,0.33196 0.81845,0.92745 0,0.60219 -0.35878,0.95427 -0.81845,0.95427"
         style="fill:#4b2a91;fill-opacity:1;fill-rule:nonzero;stroke:none;stroke-width:0.35277778"
         id="path5633"
         inkscape:connector-curvature="0" />
      <path
         d="m 140.59979,167.39498 -0.002,-3.10339 v -1.50177 c 0,-0.0854 -0.0691,-0.15452 -0.15416,-0.15452 h -0.57926 c -0.078,0 -0.14006,0.0603 -0.15029,0.13476 -7e-4,0.007 -0.004,0.0123 -0.004,0.0198 v 1.69369 l 0.004,-7.1e-4 v 0.055 c -0.0949,-0.17639 -0.36548,-0.41345 -0.94086,-0.41345 -0.9405,0 -1.59702,0.76517 -1.59702,1.7399 0,1.00788 0.67663,1.7526 1.62454,1.7526 0.44626,0 0.78458,-0.2032 0.9338,-0.46708 v 0.0134 l 0.002,-0.003 c 0,0.0483 7e-4,0.0892 0.003,0.12665 0.005,0.0765 0.0123,0.14464 0.0205,0.19614 l 7.1e-4,-0.002 v 0.002 c 0.012,0.0279 0.0413,0.0501 0.0751,0.0526 h 0.6163 l -0.002,-0.004 c 0.079,0 0.14288,-0.061 0.15099,-0.13758 m -1.69122,-0.58349 c -0.47413,0 -0.82585,-0.35208 -0.82585,-0.94721 0,-0.59549 0.36477,-0.93451 0.82585,-0.93451 0.46003,0 0.81845,0.33196 0.81845,0.92745 0,0.60219 -0.35842,0.95427 -0.81845,0.95427"
         style="fill:#4b2a91;fill-opacity:1;fill-rule:nonzero;stroke:none;stroke-width:0.35277778"
         id="path5637"
         inkscape:connector-curvature="0" />
      <path
         d="m 146.02869,163.33344 c 0.0233,-0.0607 0.0374,-0.12559 0.0374,-0.19403 0,-0.30127 -0.24694,-0.54857 -0.55456,-0.54857 -0.30127,0 -0.54857,0.2473 -0.54857,0.54857 0,0.25612 0.17921,0.47167 0.41804,0.53093 l -0.30021,0.67099 c -0.001,0.005 -0.002,0.009 -0.002,0.0141 0,0.031 0.025,0.0561 0.0561,0.0561 l -3.5e-4,0.001 h 0.30057 c 0.0289,0 0.0632,-0.0226 0.0794,-0.0504 l 0.50306,-1.00118 c 0.004,-0.008 0.007,-0.0173 0.0102,-0.0261 3.6e-4,-3.5e-4 7.1e-4,-10e-4 7.1e-4,-0.002"
         style="fill:#4b2a91;fill-opacity:1;fill-rule:nonzero;stroke:none;stroke-width:0.35277778"
         id="path5641"
         inkscape:connector-curvature="0" />
      <path
         d="m 155.45244,165.49527 c 0,0.27199 -0.22049,0.49318 -0.49212,0.49318 -0.27235,0 -0.49248,-0.22119 -0.49248,-0.49318 0,-0.27164 0.22013,-0.49248 0.49248,-0.49248 0.27163,0 0.49212,0.22084 0.49212,0.49248 m 0.57256,3.07763 v -6.70207 c -0.024,-1.02447 -0.6417,-1.90112 -1.52259,-2.30046 -0.29245,-0.12665 -0.60784,-0.20814 -0.93627,-0.22578 -1.62596,-0.0861 -2.88255,0.87559 -3.21769,2.17382 -0.21766,0.79057 -0.0494,1.7406 0.49495,2.53894 0.66781,0.98037 3.41348,3.57963 4.73921,4.7378 0.0459,0.0335 0.1016,0.054 0.16299,0.054 0.15346,0 0.27728,-0.12347 0.2794,-0.27623"
         style="fill:#4b2a91;fill-opacity:1;fill-rule:nonzero;stroke:none;stroke-width:0.35277778"
         id="path5645"
         inkscape:connector-curvature="0" />
      <path
         d="m 158.08275,165.10366 c -0.67663,0 -1.22379,0.54716 -1.22379,1.22308 0,0.67451 0.54716,1.22202 1.22379,1.22202 0.67451,0 1.22308,-0.54751 1.22308,-1.22202 0,-0.67592 -0.54857,-1.22308 -1.22308,-1.22308"
         style="fill:#4b2a91;fill-opacity:1;fill-rule:nonzero;stroke:none;stroke-width:0.35277778"
         id="path5649"
         inkscape:connector-curvature="0" />
      <path
         d="m 156.85932,167.87826 c -0.23354,0 -0.42227,0.18909 -0.42227,0.42227 0,0.23319 0.18873,0.42193 0.42227,0.42193 0.23283,0 0.42157,-0.18874 0.42157,-0.42193 0,-0.23318 -0.18874,-0.42227 -0.42157,-0.42227"
         style="fill:#4b2a91;fill-opacity:1;fill-rule:nonzero;stroke:none;stroke-width:0.35277778"
         id="path5653"
         inkscape:connector-curvature="0" />
      <path
         d="m 160.41038,162.1294 c -0.89641,0 -1.62419,0.72707 -1.62419,1.62595 0,0.89676 0.72778,1.62384 1.62419,1.62384 0.89852,0 1.6256,-0.72708 1.6256,-1.62384 0,-0.89888 -0.72708,-1.62595 -1.6256,-1.62595"
         style="fill:#4b2a91;fill-opacity:1;fill-rule:nonzero;stroke:none;stroke-width:0.35277778"
         id="path5657"
         inkscape:connector-curvature="0" />
      <path
         d="m 161.54103,160.12809 c -0.47061,0 -0.85302,0.38135 -0.85302,0.85302 0,0.47025 0.38241,0.85231 0.85302,0.85231 0.47061,0 0.85266,-0.38206 0.85266,-0.85231 0,-0.47167 -0.38205,-0.85302 -0.85266,-0.85302"
         style="fill:#4b2a91;fill-opacity:1;fill-rule:nonzero;stroke:none;stroke-width:0.35277778"
         id="path5661"
         inkscape:connector-curvature="0" />
      <path
         d="m 158.2796,162.17631 c 0.86289,0 1.56245,-0.69815 1.56245,-1.56034 0,-0.86183 -0.69956,-1.56033 -1.56245,-1.56033 -0.86042,0 -1.55928,0.6985 -1.55928,1.56033 0,0.86219 0.69886,1.56034 1.55928,1.56034"
         style="fill:#4b2a91;fill-opacity:1;fill-rule:nonzero;stroke:none;stroke-width:0.35277778"
         id="path5665"
         inkscape:connector-curvature="0" />
      <path
         d="m 158.33957,163.54968 c 0,0.51223 -0.41522,0.92745 -0.92745,0.92745 -0.51188,0 -0.9271,-0.41522 -0.9271,-0.92745 0,-0.51259 0.41522,-0.92781 0.9271,-0.92781 0.51223,0 0.92745,0.41522 0.92745,0.92781"
         style="fill:#4b2a91;fill-opacity:1;fill-rule:nonzero;stroke:none;stroke-width:0.35277778"
         id="path5669"
         inkscape:connector-curvature="0" />
    </g>
  </g>
</svg>
