<?xml version="1.0" encoding="utf-8"?>
<!-- Generator: Adobe Illustrator 15.1.0, SVG Export Plug-In . SVG Version: 6.00 Build 0)  -->
<!DOCTYPE svg PUBLIC "-//W3C//DTD SVG 1.1//EN" "http://www.w3.org/Graphics/SVG/1.1/DTD/svg11.dtd">
<svg version="1.1" id="Layer_1" xmlns="http://www.w3.org/2000/svg" xmlns:xlink="http://www.w3.org/1999/xlink" x="0px" y="0px"
	 width="2000px" height="1605px" viewBox="-1181 -632 2000 1605" enable-background="new -1181 -632 2000 1605"
	 xml:space="preserve">
<path fill="#FF0000" d="M-860.666,696.668c0,0-12.333-40.002-34-61.668S-1083.334,446.334-1108,421.667s-73-72.665-73-142.666
	c0-70,59-120,130.333-148.667S180.667-369,266.667-405s209.667-91.333,265.667-118S747-624.75,752.25-627.583
	S760.333-632,762.833-632s4.834,2.167,4.834,5s-1.834,6.75-2.417,8.667S716.667-473.667,678.667-425S622-355.667,440-291.667
	S-957.335,199.001-988.001,211.001s-100,33.333-100,84.667c0,41.333,41.333,73.334,53.333,84s338.667,316.999,338.667,316.999
	H-860.666z"/>
<path fill="#FF0000" d="M-1004,365.5c0,0-29.667-27.5-33.667-31.5s-12.667-18.999-12.667-29.666s2-36.334,47-50.334
	S92.001-105.667,149.334-123.667S545.25-254,605.5-281c12.75-5.5,15-6.833,17-6.833s4.583,1.25,4.583,4.333s-1.417,5.417-2.5,7.167
	S565.5-155.5,531.5-118S467-54,405-38.5S-623.5,237-629.75,238.75s-13.5,7.5-13.5,15.25c0,12.75,10.5,13.75,10.5,13.75L-1004,365.5z
	"/>
<path fill="#FF0000" d="M-982.5,384.5L-897,464l443.5-83.5c0,0-11.5-7.25-11.5-15.625s6.75-13.875,14.875-15.5
	s651.125-126.374,691.125-133.374s92.666-18.667,135.666-70.667S461.375,23.875,462.75,21.75s1.875-3.375,1.875-4.625
	s-0.75-4.375-4-4.375s-5,0.75-8.25,2S-982.5,384.5-982.5,384.5z"/>
<path fill="#FF0000" d="M275,267.5c-1.817,0.413-1151.667,215.833-1151.667,215.833l99.667,92.166l531.835-66.999
	c0,0-10-3.666-10-14s9.833-14.167,15.5-15.167s273.667-40.335,305.167-45.002s83.333-15.5,127-61.5s86.668-97,88.334-99
	s1.915-3.248,1.915-4.248S281.5,266.5,279,266.5C278.334,266.5,276.833,267.084,275,267.5z"/>
<polygon fill="#FF0000" points="-753.333,597 -646.666,697 57.334,697 -206,533 "/>
<path fill="#FF0000" d="M-789.78,773c3-0.333,28.333-4,28.333-4v-29.667h-179.886V769c0,0,25.333,3.667,28.333,4
	s16.333,3.333,16.333,18.333v37.669h-138.78v-37.669c0-15,13.333-18,16.333-18.333s28.333-4,28.333-4v-29.667h-179.886V769
	c0,0,25.333,3.667,28.333,4s16.333,3.333,16.333,18.333v121.256c0,15-13.333,18-16.333,18.333s-28.333,3.15-28.333,3.15v29.667
	h179.886v-29.667c0,0-25.333-2.817-28.333-3.15s-16.333-3.333-16.333-18.333v-37.92h138.78v37.92c0,15-13.333,18-16.333,18.333
	s-28.333,3.15-28.333,3.15v29.667h179.886v-29.667c0,0-25.333-2.817-28.333-3.15s-16.333-3.333-16.333-18.333V791.333
	C-806.113,776.333-792.78,773.333-789.78,773z"/>
<path fill="#FF0000" d="M-568.333,732.002c-116,0-183.667,42.098-183.667,120.123s67.667,120.123,183.667,120.123
	s183.667-42.098,183.667-120.123S-452.333,732.002-568.333,732.002z M-568.333,930.796c-22.667,0-79.667,0.662-79.667-78.671
	s57-78.671,79.667-78.671s79.667-0.662,79.667,78.671S-545.666,930.796-568.333,930.796z"/>
<path fill="#FF0000" d="M-121.833,769.5v-30.501h144.5v30c0,0-25.167,2.501-30.042,3.126S-23,777.625-23,791.375S-23,955.25-23,964
	c0,0-106.333,0-111.667,0s-13.083-1.5-17.583-7S-274.5,797.5-274.5,797.5c0,13.75,0,108.25,0,117s8.625,14.625,15,15.5
	s30.5,3.917,30.5,3.917V964v-30.083V964l-144.667,0.001v-30c0,0,25.167-2.501,30.042-3.126s15.625-5.5,15.625-19.25
	s0-114.125,0-122.875s-8.625-14.625-15-15.5s-30.5-3.5-30.5-3.5V739c0,0,151.833,0,157.167,0s13.083,1.5,17.583,7
	S-76.5,905.5-76.5,905.5c0-13.75,0-108.25,0-117s-8.625-14.625-15-15.5S-121.833,769.5-121.833,769.5V739"/>
<path fill="#FF0000" d="M270.669,739c-43.595,0-232.835,0-232.835,0v30.75c0,0,24.125,2.625,30.5,3.5s15,6.75,15,15.5
	s0,109.125,0,122.875s-10.75,18.625-15.625,19.25s-30.042,3.126-30.042,3.126v30L270.669,964c75.419,0,139.081-35,139.081-113.5
	S338,739,270.669,739z M248,921.334h-77.333v-139c0,0,49,0,77.667,0s57.333,9.666,57.333,68.333S283,921.334,248,921.334z"/>
<path fill="#FF0000" d="M787,930.625c-11.625-1.25-17.625-12.375-19.125-14.625S661.625,753.875,657.5,747.875
	s-12.375-8.5-16.625-8.5s-173.875,0-173.875,0v30.5c0,0,36.875,3.625,41.5,4.125s9.375,9,9.375,11.875s-1.625,5.625-2.625,7.375
	s-74.875,122.375-78.75,128.375s-10.375,8.75-15.125,9.125S392,933.335,392,933.335v30.666h143.333v-29.666l-28.999-3.668
	c-6.5-1.167-8.333-8.5-8.333-10.333s1-4.667,2.833-7.5c0.414-0.64,4.604-7.412,10.835-17.499h138.349
	c6.656,10.087,11.121,16.859,11.535,17.499c1.833,2.833,2.833,5.667,2.833,7.5s-1.833,9.166-8.333,10.333L623,933.335v30.666
	h194.333v-29.666C817.333,934.335,798.625,931.875,787,930.625z M535.946,856.001C556.524,822.646,578.5,787,578.5,787
	s23.537,35.646,45.557,69.001H535.946z"/>
</svg>
