<?xml version="1.0"?>
<svg fill="#000000"
	xmlns="http://www.w3.org/2000/svg" viewBox="0 0 30 30" width="240px" height="240px">
	<path d="M 15.183594 3 C 11.820594 3 8.0848281 4.2580938 7.2988281 8.3710938 C 7.2148281 8.8090937 7.5215469 9.0336562 7.8105469 9.0976562 L 11.224609 9.4453125 C 11.545609 9.4283125 11.801281 9.1304531 11.863281 8.8144531 C 12.157281 7.3974531 13.357125 6.6972656 14.703125 6.6972656 C 15.430125 6.6972656 16.253594 6.9692812 16.683594 7.6132812 C 17.180594 8.3322813 17.097656 9.3095781 17.097656 10.142578 L 17.097656 10.615234 C 15.048656 10.843234 12.376937 10.982406 10.460938 11.816406 C 8.2469375 12.763406 6.6933594 14.695156 6.6933594 17.535156 C 6.6933594 21.169156 9.0171875 23.001953 11.992188 23.001953 C 14.505187 23.001953 15.860781 22.399359 17.800781 20.443359 C 18.441781 21.362359 18.66975 21.81425 19.84375 22.78125 C 20.10775 22.92125 20.440828 22.8955 20.673828 22.6875 L 20.673828 22.71875 C 21.378828 22.09675 22.664766 20.981859 23.384766 20.380859 C 23.671766 20.146859 23.609766 19.781891 23.384766 19.462891 C 22.738766 18.579891 22.076172 17.847031 22.076172 16.207031 L 22.076172 10.771484 C 22.076172 8.4624844 22.232672 6.3263281 20.513672 4.7363281 C 19.156672 3.4483281 16.901594 3 15.183594 3 z M 16.140625 13.425781 C 16.459625 13.404781 16.777656 13.425781 17.097656 13.425781 L 17.097656 14.183594 C 17.098656 15.547594 17.152984 16.668859 16.458984 17.880859 C 15.896984 18.864859 14.993953 19.460938 14.001953 19.460938 C 12.645953 19.460938 11.861328 18.445641 11.861328 16.931641 C 11.861328 14.326641 13.910625 13.570781 16.140625 13.425781 z M 26.080078 22.220703 C 25.171078 22.233703 24.106016 22.424234 23.291016 22.990234 C 23.041016 23.164234 23.077469 23.409953 23.355469 23.376953 C 24.272469 23.267953 26.299063 23.011656 26.664062 23.472656 C 27.028063 23.934656 26.261922 25.832641 25.919922 26.681641 C 25.815922 26.937641 26.041391 27.036797 26.275391 26.841797 C 27.801391 25.577797 28.208484 22.956266 27.896484 22.572266 C 27.741484 22.385266 26.990078 22.207703 26.080078 22.220703 z M 2.1777344 22.701172 C 1.9877344 22.726172 1.9132812 22.973344 2.1132812 23.152344 C 5.5052812 26.184344 9.9770781 28 14.955078 28 C 18.506078 28 22.651094 26.899312 25.496094 24.820312 C 25.966094 24.475313 25.557172 23.943484 25.076172 24.146484 C 21.887172 25.486484 18.401047 26.136719 15.248047 26.136719 C 10.573047 26.136719 6.06525 24.873625 2.40625 22.765625 C 2.32525 22.719625 2.2397344 22.693172 2.1777344 22.701172 z"/>
</svg>