<svg xmlns="http://www.w3.org/2000/svg"  viewBox="0 0 100 100" width="200px" height="200px"><path fill="#78a2d2" d="M50 15A35 35 0 1 0 50 85A35 35 0 1 0 50 15Z"/><path fill="#1f212b" d="M77.237 64.039c-.074 0-.148-.017-.219-.051-.248-.121-.352-.42-.23-.668.198-.408.388-.819.566-1.233.694-1.612 1.247-3.299 1.643-5.014.063-.27.328-.438.6-.375.27.063.437.331.375.6-.409 1.773-.981 3.518-1.699 5.185-.185.429-.38.854-.586 1.275C77.601 63.936 77.422 64.039 77.237 64.039zM80.383 53.394c-.016 0-.03-.001-.045-.002-.275-.024-.479-.268-.454-.542.058-.647.095-1.296.111-1.944.102-4.025-.589-7.962-2.051-11.703-.101-.257.026-.547.284-.648.257-.101.547.027.647.284 1.511 3.866 2.224 7.934 2.119 12.093-.017.67-.056 1.34-.115 2.007C80.856 53.198 80.639 53.394 80.383 53.394zM27.735 29.728c-.123 0-.245-.044-.341-.135-.202-.188-.212-.504-.024-.707 5.049-5.408 11.882-8.824 19.238-9.618.277-.023.521.169.551.443.03.274-.169.521-.443.551-7.118.768-13.729 4.073-18.614 9.306C28.002 29.675 27.869 29.728 27.735 29.728zM29.278 72.784c-.123 0-.245-.045-.341-.135-10.553-9.853-12.957-25.46-5.845-37.955.136-.24.441-.325.682-.187.24.137.324.442.187.682-6.881 12.09-4.554 27.194 5.659 36.729.202.188.212.505.024.706C29.545 72.73 29.412 72.784 29.278 72.784zM63.348 78.001c-.186 0-.364-.104-.45-.283-.12-.248-.016-.547.233-.667 3.324-1.603 6.3-3.796 8.843-6.519 1.025-1.1 1.974-2.28 2.817-3.51.156-.227.468-.285.695-.129s.285.467.129.695c-.871 1.271-1.851 2.49-2.911 3.625-2.628 2.814-5.702 5.081-9.14 6.737C63.495 77.985 63.421 78.001 63.348 78.001z"/><path fill="#fefdef" d="M44.5,84V59.5h-9v-9h9l0-8.971c-0.195-8.049,5.897-15.88,20-11.538L64.471,38.5l-4.901-0.032 c-3.77,0-5.069,1.246-5.069,3.962v8.07h10.776l-1.894,9H54.5V84"/><path fill="#1f212b" d="M55,84h-1V59h8.977l1.683-8H54v-8.57c0-3.128,1.666-4.462,5.569-4.462l4.403,0.029l0.026-7.634 c-6.137-1.817-11.193-1.399-14.641,1.211c-2.87,2.174-4.458,5.798-4.358,9.943V51h-9v8h9v25h-1V60h-9V50h9v-8.471 c-0.108-4.459,1.625-8.382,4.754-10.752c2.636-1.996,7.534-3.836,15.893-1.264l0.354,0.109l-0.032,9.381l-5.402-0.036 c-3.802,0-4.566,1.325-4.566,3.462V50h10.892l-2.104,10H55V84z"/><g><path fill="#1f212b" d="M50,86c-19.851,0-36-16.149-36-36s16.149-36,36-36s36,16.149,36,36S69.851,86,50,86z M50,16 c-18.748,0-34,15.252-34,34c0,18.748,15.252,34,34,34c18.748,0,34-15.252,34-34C84,31.252,68.748,16,50,16z"/></g></svg>