<?xml version="1.0" encoding="UTF-8" standalone="no"?>
<!-- Created with Inkscape (http://www.inkscape.org/) -->

<svg
   xmlns:dc="http://purl.org/dc/elements/1.1/"
   xmlns:cc="http://creativecommons.org/ns#"
   xmlns:rdf="http://www.w3.org/1999/02/22-rdf-syntax-ns#"
   xmlns:svg="http://www.w3.org/2000/svg"
   xmlns="http://www.w3.org/2000/svg"
   xmlns:sodipodi="http://sodipodi.sourceforge.net/DTD/sodipodi-0.dtd"
   xmlns:inkscape="http://www.inkscape.org/namespaces/inkscape"
   width="141.00002"
   height="20.998581"
   viewBox="0 0 37.306255 5.5558746"
   version="1.1"
   id="svg1685"
   inkscape:version="0.92.0 r15299"
   sodipodi:docname="inmobi2.svg">
  <defs
     id="defs1679" />
  <sodipodi:namedview
     id="base"
     pagecolor="#ffffff"
     bordercolor="#666666"
     borderopacity="1.0"
     inkscape:pageopacity="0.0"
     inkscape:pageshadow="2"
     inkscape:zoom="6.4071417"
     inkscape:cx="70.000013"
     inkscape:cy="9.9992882"
     inkscape:document-units="mm"
     inkscape:current-layer="layer1"
     showgrid="false"
     fit-margin-top="0"
     fit-margin-left="0"
     fit-margin-right="0"
     fit-margin-bottom="0"
     units="px"
     inkscape:window-width="1280"
     inkscape:window-height="744"
     inkscape:window-x="-4"
     inkscape:window-y="-4"
     inkscape:window-maximized="1" />
  <metadata
     id="metadata1682">
    <rdf:RDF>
      <cc:Work
         rdf:about="">
        <dc:format>image/svg+xml</dc:format>
        <dc:type
           rdf:resource="http://purl.org/dc/dcmitype/StillImage" />
        <dc:title></dc:title>
      </cc:Work>
    </rdf:RDF>
  </metadata>
  <g
     inkscape:label="Layer 1"
     inkscape:groupmode="layer"
     id="layer1"
     transform="translate(-9.4493964,-272.92311)">
    <g
       transform="translate(-148.59078,-321.18116)"
       id="g1659">
      <path
         style="fill:#004291;stroke-width:0.26458332"
         inkscape:connector-curvature="0"
         d="m 163.73904,594.24492 h -1.05833 a 2.5291521,2.5291521 0 0 0 -1.75551,0.57732 2.1478875,2.1478875 0 0 0 -0.64267,1.66953 v 3.02418 h 1.22846 v -3.12975 a 0.9665229,0.9665229 0 0 1 0.31009,-0.77338 1.2610042,1.2610042 0 0 1 0.85963,-0.27914 h 1.05833 a 1.2625917,1.2625917 0 0 1 0.85964,0.27914 0.97895832,0.97895832 0 0 1 0.31009,0.77338 v 3.13002 h 1.22872 v -3.02445 a 2.1468291,2.1468291 0 0 0 -0.6432,-1.66953 2.5278291,2.5278291 0 0 0 -1.75525,-0.57732"
         id="path1591" />
      <path
         style="fill:#004291;stroke-width:0.26458332"
         inkscape:connector-curvature="0"
         d="m 175.19339,594.24492 h -1.05834 a 2.5288875,2.5288875 0 0 0 -1.75524,0.57732 c -0.0103,0.01 -0.0188,0.0199 -0.0288,0.0296 -0.0101,-0.01 -0.0188,-0.0201 -0.0291,-0.0296 a 2.5275646,2.5275646 0 0 0 -1.75524,-0.57732 h -1.05834 a 2.5280937,2.5280937 0 0 0 -1.75524,0.57732 2.1463,2.1463 0 0 0 -0.64294,1.66953 v 3.02418 h 1.22714 v -3.12975 a 0.96599374,0.96599374 0 0 1 0.31035,-0.77338 1.2612687,1.2612687 0 0 1 0.85964,-0.27914 h 1.05833 a 1.2641792,1.2641792 0 0 1 0.85989,0.27914 0.97895832,0.97895832 0 0 1 0.3101,0.77338 v 3.13002 h 1.22872 v -3.13002 a 0.9665229,0.9665229 0 0 1 0.31009,-0.77338 1.2617979,1.2617979 0 0 1 0.85963,-0.27914 h 1.05834 a 1.2628562,1.2628562 0 0 1 0.85963,0.27914 0.97895832,0.97895832 0 0 1 0.31009,0.77338 v 3.13002 h 1.2282 v -3.02445 a 2.1463,2.1463 0 0 0 -0.64294,-1.66953 2.5283583,2.5283583 0 0 0 -1.75525,-0.57732"
         id="path1593" />
      <path
         style="fill:#004291;stroke-width:0.26458332"
         inkscape:connector-curvature="0"
         d="m 192.35558,596.68174 a 0.94191665,0.94191665 0 0 0 0.19871,-0.37439 2.5680458,2.5680458 0 0 0 0.0638,-0.65643 1.2498917,1.2498917 0 0 0 -0.56383,-1.14856 2.4870833,2.4870833 0 0 0 -1.24989,-0.25744 h -3.90472 v 5.2713 h 4.22884 a 1.9579166,1.9579166 0 0 0 1.31365,-0.37571 c 0.28946,-0.25427 0.43604,-0.67416 0.43604,-1.24778 0,-0.58578 -0.17569,-0.99245 -0.52256,-1.21126 m -1.53696,-0.46752 h -2.69055 v -0.87312 h 2.68288 c 0.51488,0 0.58605,0.21616 0.58605,0.44979 0,0.21934 -0.0701,0.42333 -0.57891,0.42333 m -2.69002,1.10226 h 2.8575 c 0.59214,0 0.67204,0.26326 0.67204,0.5207 0,0.40957 -0.18521,0.57652 -0.635,0.57652 h -2.89454 z"
         id="path1595" />
      <rect
         style="fill:#004291;stroke-width:0.26458332"
         y="594.25024"
         x="193.83328"
         width="1.2483041"
         height="5.2660022"
         id="rect1597" />
      <path
         style="fill:#004291;stroke-width:0.26458332"
         inkscape:connector-curvature="0"
         d="m 178.41178,596.05864 c 0.003,-0.004 0.006,-0.008 0.008,-0.0127 l 0.0172,-0.0249 c 0.0156,-0.0214 0.0309,-0.0415 0.0474,-0.0619 0.007,-0.009 0.0103,-0.0135 0.0138,-0.0177 l 0.008,-0.009 a 1.3514916,1.3514916 0 0 1 0.10901,-0.11218 l 0.0132,-0.0119 c 0.0212,-0.0193 0.0445,-0.0386 0.0685,-0.0582 0.0124,-0.01 0.0241,-0.0196 0.037,-0.0296 l 0.006,-0.004 a 1.7856729,1.7856729 0 0 1 0.21775,-0.13997 l 0.0265,-0.014 c 0.0553,-0.0296 0.11191,-0.0564 0.17092,-0.0812 l 0.006,-0.003 c 0.0283,-0.0119 0.0582,-0.0236 0.0886,-0.0352 l 0.04,-0.0143 c 0.0529,-0.0188 0.10875,-0.0368 0.16643,-0.0529 0.0175,-0.005 0.0357,-0.0106 0.0542,-0.0153 0.008,-0.002 0.0161,-0.004 0.0238,-0.007 0.008,-0.003 0.023,-0.007 0.0357,-0.01 0.0979,-0.0265 0.19235,-0.0463 0.28019,-0.0627 v 0 c 0.0415,-0.008 0.0818,-0.0145 0.11986,-0.0204 h 0.002 l 0.0108,-0.002 0.0161,-0.002 h 0.005 c 0.0336,-0.005 0.0654,-0.009 0.0947,-0.0127 l 0.009,-10e-4 v 0 c 0.0302,-0.004 0.0582,-0.007 0.0839,-0.01 l 0.0156,-10e-4 h 0.007 v 0 h 0.008 0.0108 v 0 l 0.0492,-0.004 h 0.006 l 0.0265,-0.002 h 0.01 a 0.88714791,0.88714791 0 0 1 0.0894,-0.005 h 3.64225 a 0.89958332,0.89958332 0 0 1 0.70512,0.33655 l -0.0122,-0.0667 c -0.006,-0.0265 -0.0114,-0.0513 -0.018,-0.0775 l -0.007,-0.0286 c -0.007,-0.0265 -0.0145,-0.0529 -0.023,-0.0794 l -0.0206,-0.0635 q -0.0185,-0.0542 -0.0415,-0.10874 v -0.003 a 1.3694833,1.3694833 0 0 0 -1.03928,-0.84958 l -0.0265,-0.006 c -0.0246,-0.005 -0.05,-0.009 -0.0757,-0.0124 h -0.01 c -0.0249,-0.003 -0.0505,-0.006 -0.0759,-0.009 q -0.0302,-0.003 -0.0608,-0.005 c -0.0135,0 -0.0265,-0.002 -0.0408,-0.003 h -0.008 c -0.0365,-0.002 -0.0736,-0.003 -0.11192,-0.003 h -2.70669 c -1.12262,0 -2.03993,0.81253 -2.07274,1.82245"
         id="path1599" />
      <path
         style="fill:#004291;stroke-width:0.26458332"
         inkscape:connector-curvature="0"
         d="m 184.92185,597.89194 c -0.003,0.0124 -0.006,0.0265 -0.01,0.0389 0,10e-4 0,0.003 0,0.004 -0.004,0.0135 -0.007,0.0265 -0.0116,0.0415 l -0.002,0.005 c -0.004,0.014 -0.009,0.0291 -0.014,0.0442 l -0.001,0.004 c -0.005,0.0159 -0.0111,0.0323 -0.0172,0.0487 v 0.002 a 1.74625,1.74625 0 0 1 -0.18521,0.35613 l -0.002,0.003 q -0.0204,0.0302 -0.0423,0.0606 l -0.003,0.004 c -0.0156,0.0209 -0.0315,0.0418 -0.0484,0.0632 v 0 a 2.0372916,2.0372916 0 0 1 -0.18151,0.19897 l -0.002,0.002 c -0.0214,0.0204 -0.0434,0.041 -0.0664,0.0611 l -0.0127,0.0111 c -0.0198,0.0175 -0.04,0.0347 -0.0609,0.0529 -0.006,0.005 -0.0119,0.01 -0.0183,0.0143 -0.0201,0.0164 -0.041,0.0325 -0.0622,0.0487 l -0.0206,0.0151 c -0.0222,0.0161 -0.0452,0.0325 -0.0688,0.0487 l -0.0188,0.0132 c -0.028,0.0188 -0.0566,0.0373 -0.0863,0.0556 l -0.007,0.004 q -0.0976,0.0601 -0.20875,0.11721 l -0.0283,0.0143 c -0.0265,0.0135 -0.055,0.0264 -0.0833,0.0405 l -0.0392,0.0177 c -0.0265,0.0117 -0.0529,0.0236 -0.0794,0.0349 l -0.0447,0.0185 q -0.0402,0.0164 -0.0825,0.0325 l -0.0474,0.018 c -0.0296,0.0108 -0.0598,0.0214 -0.0902,0.0317 -0.0156,0.005 -0.0307,0.0108 -0.0466,0.0159 q -0.0529,0.0175 -0.11112,0.0347 l -0.0323,0.0101 c -0.0474,0.0138 -0.0958,0.0265 -0.14578,0.0402 h 0.82602 c 1.26709,0 2.29791,-0.84296 2.29791,-1.87854 v -1.52665 c 0,-0.97604 -0.91466,-1.78038 -2.08015,-1.8706 l 0.003,0.001 0.0103,0.005 c 0.0265,0.0122 0.0489,0.023 0.0706,0.0339 l 0.0204,0.0106 q 0.036,0.019 0.0696,0.0394 l 0.0146,0.009 c 0.0238,0.0148 0.0423,0.0265 0.0601,0.0392 l 0.0159,0.0109 c 0.0204,0.0143 0.04,0.0294 0.0593,0.0444 l 0.0206,0.0169 c 0.0172,0.014 0.0347,0.0286 0.0513,0.0439 0.004,0.004 0.01,0.009 0.0151,0.014 0.0151,0.0138 0.0294,0.0265 0.0434,0.0418 0.005,0.005 0.0106,0.0109 0.0161,0.0167 0.0177,0.0183 0.0333,0.0352 0.0479,0.0529 0.006,0.006 0.0111,0.0127 0.0167,0.0196 0.0103,0.0124 0.0214,0.0265 0.032,0.0397 l 0.0145,0.0185 c 0.013,0.0167 0.0265,0.0344 0.0378,0.0529 l 0.0151,0.022 c 0.01,0.0145 0.0193,0.0294 0.0278,0.0437 l 0.0145,0.0228 c 0.0101,0.0167 0.0185,0.0317 0.0265,0.0468 l 0.014,0.0265 c 0.009,0.0169 0.0183,0.0344 0.0265,0.0516 l 0.0294,0.0624 c 0.004,0.0103 0.008,0.0172 0.0106,0.0246 0.007,0.0148 0.0146,0.0331 0.0217,0.0516 l 0.009,0.0217 c 0.006,0.0146 0.0109,0.0294 0.0156,0.0439 a 0.16483541,0.16483541 0 0 1 0.007,0.0193 c 0.004,0.0119 0.009,0.0265 0.0132,0.0389 l 0.0106,0.0344 c 0.006,0.0185 0.0111,0.0365 0.0161,0.0529 l 0.0159,0.0611 c 10e-4,0.005 0.003,0.0119 0.005,0.019 0.004,0.0156 0.008,0.0341 0.0119,0.0529 l 0.003,0.0132 0.0204,0.11139 a 0.08784167,0.08784167 0 0 1 0.002,0.0122 c 0.006,0.0341 0.0103,0.0701 0.0138,0.10425 v 0.007 c 0.003,0.0283 0.006,0.0614 0.009,0.0918 0.002,0.0265 0.004,0.059 0.006,0.0918 l 0.005,0.21167 v 1.58247 a 0.84111041,0.84111041 0 0 1 -0.0281,0.21458 v 0 a 0.02804583,0.02804583 0 0 1 0,0.003"
         id="path1601" />
      <path
         style="fill:#004291;stroke-width:0.26458332"
         inkscape:connector-curvature="0"
         d="m 178.71684,595.92291 a 1.2049125,1.2049125 0 0 0 -0.0971,0.0995 c -0.002,0.003 -0.006,0.007 -0.0101,0.0117 l -0.0106,0.014 c -0.0145,0.018 -0.0283,0.0362 -0.0418,0.0545 l -0.0161,0.0228 c -0.0119,0.0182 -0.0243,0.0376 -0.0355,0.0561 l -0.007,0.0122 c -0.0109,0.019 -0.0209,0.0381 -0.0296,0.0558 -0.0106,0.022 -0.0185,0.0402 -0.0251,0.0571 -0.007,0.0169 -0.0127,0.0333 -0.0161,0.0452 l -0.002,0.006 c -0.003,0.0111 -0.006,0.0201 -0.008,0.0278 l -0.002,0.008 c 0,0.006 -0.003,0.0103 -0.003,0.0143 l -10e-4,0.007 v 1.22502 c 0,1.03637 0.92605,1.87854 2.06375,1.87854 h 1.70815 c 1.36552,-0.17833 2.02089,-0.67099 2.33495,-1.10226 a 0.90884374,0.90884374 0 0 1 -0.45958,0.12409 H 180.416 a 0.88106249,0.88106249 0 0 1 -0.89218,-0.8673 v -1.59015 a 0.85592707,0.85592707 0 0 1 0.30586,-0.65431 l -0.22331,0.0513 c -0.0106,0.003 -0.0201,0.006 -0.0294,0.008 l -0.0286,0.008 -0.0505,0.014 c -0.055,0.0159 -0.10821,0.0328 -0.15875,0.0508 l -0.0373,0.0132 c -0.0291,0.0111 -0.0582,0.0222 -0.0857,0.0339 l -0.006,0.003 c -0.0529,0.023 -0.10583,0.0476 -0.15716,0.0751 l -0.0199,0.0106 a 1.6547041,1.6547041 0 0 0 -0.19923,0.127 l -0.0119,0.009 c -0.0328,0.0265 -0.0648,0.0529 -0.0929,0.0775 z"
         id="path1603" />
      <rect
         style="fill:#004291;stroke-width:0.26458332"
         y="594.24542"
         x="158.04018"
         width="1.2520083"
         height="5.2821417"
         id="rect1605" />
      <path
         id="path1609"
         d="m 158.04018,599.52785 v -5.28214 h 1.25201 v 5.28214 z m 24.8973,-0.008 c 0.0497,-0.013 0.0982,-0.0265 0.14578,-0.0402 l 0.0325,-0.01 c 0.0381,-0.0114 0.0746,-0.0233 0.11087,-0.0347 0.0159,-0.005 0.0309,-0.0106 0.0466,-0.0161 q 0.0452,-0.0154 0.09,-0.0317 l 0.0474,-0.0177 c 0.0281,-0.0109 0.0556,-0.0214 0.0828,-0.0325 l 0.0447,-0.0185 c 0.0265,-0.0114 0.0529,-0.0233 0.0794,-0.0352 l 0.0392,-0.0177 c 0.0283,-0.0132 0.0558,-0.0265 0.0833,-0.0405 l 0.0283,-0.0143 c 0.0736,-0.0376 0.14314,-0.0773 0.20849,-0.11721 l 0.007,-0.004 c 0.0296,-0.0185 0.0582,-0.0373 0.0863,-0.0556 l 0.0191,-0.0135 c 0.0238,-0.0161 0.0463,-0.0325 0.0685,-0.0487 l 0.0209,-0.0151 c 0.0209,-0.0161 0.0418,-0.0323 0.0619,-0.0487 0.006,-0.005 0.0122,-0.009 0.018,-0.0145 0.0212,-0.0169 0.041,-0.0341 0.0611,-0.0513 l 0.0127,-0.0114 c 0.0233,-0.0204 0.045,-0.0407 0.0661,-0.0614 l 0.003,-0.002 a 1.9880791,1.9880791 0 0 0 0.18124,-0.1987 v 0 c 0.0167,-0.0212 0.0328,-0.0421 0.0482,-0.063 l 0.003,-0.005 c 0.0145,-0.0204 0.0286,-0.0405 0.0421,-0.0606 a 0.01613958,0.01613958 0 0 0 0.003,-0.003 1.7248187,1.7248187 0 0 0 0.18521,-0.35613 0.01613958,0.01613958 0 0 1 0,-0.002 c 0.006,-0.0164 0.0119,-0.0328 0.0175,-0.0487 a 0.01878542,0.01878542 0 0 0 0,-0.004 c 0.005,-0.0151 0.01,-0.0302 0.0137,-0.0442 0,-0.002 0,-0.003 0.003,-0.005 0.004,-0.0143 0.008,-0.0265 0.0114,-0.0415 0,0 0,-0.003 0,-0.004 0.003,-0.0135 0.007,-0.0265 0.0101,-0.0389 a 0.0111125,0.0111125 0 0 0 0,-0.003 0.84402082,0.84402082 0 0 0 0.0281,-0.21458 v -1.58247 l -0.005,-0.21167 c 0,-0.0328 -0.003,-0.0661 -0.006,-0.0915 -0.003,-0.0304 -0.006,-0.0635 -0.009,-0.0915 v -0.008 c -0.003,-0.0341 -0.008,-0.0701 -0.0138,-0.10424 a 0.09022292,0.09022292 0 0 0 -0.003,-0.0119 l -0.0204,-0.11192 -0.003,-0.013 c -0.004,-0.0183 -0.008,-0.0368 -0.0119,-0.0529 a 0.1730375,0.1730375 0 0 0 -0.005,-0.0193 l -0.0159,-0.0611 c -0.005,-0.0177 -0.0103,-0.0355 -0.0161,-0.0529 l -0.0106,-0.0344 -0.0132,-0.0389 c -0.003,-0.007 -0.005,-0.0145 -0.007,-0.019 -0.005,-0.0148 -0.0103,-0.0294 -0.0159,-0.0442 l -0.009,-0.0214 c -0.007,-0.0185 -0.0148,-0.0368 -0.0217,-0.0516 -0.003,-0.007 -0.006,-0.0145 -0.0106,-0.0249 l -0.0296,-0.0624 c -0.008,-0.0175 -0.0175,-0.0347 -0.0265,-0.0513 l -0.0143,-0.0265 c -0.009,-0.0151 -0.0169,-0.0302 -0.0265,-0.0468 l -0.0145,-0.0225 c -0.009,-0.0148 -0.0183,-0.0294 -0.0281,-0.0442 l -0.0151,-0.0214 c -0.0119,-0.018 -0.0251,-0.0354 -0.0376,-0.0529 -0.006,-0.007 -0.0111,-0.0135 -0.0148,-0.0185 -0.0106,-0.0143 -0.022,-0.0265 -0.0323,-0.0397 a 0.1905,0.1905 0 0 0 -0.0167,-0.0193 c -0.0146,-0.0175 -0.0299,-0.0341 -0.0476,-0.0529 -0.006,-0.006 -0.0111,-0.0119 -0.0161,-0.0167 -0.0138,-0.0145 -0.0283,-0.0283 -0.0434,-0.0421 -0.005,-0.005 -0.0111,-0.0103 -0.0151,-0.0138 -0.0167,-0.0153 -0.0341,-0.0299 -0.0511,-0.0442 l -0.0209,-0.0167 c -0.0193,-0.0151 -0.0386,-0.0299 -0.0587,-0.0445 -0.006,-0.004 -0.0114,-0.008 -0.0161,-0.0109 -0.0177,-0.0122 -0.036,-0.0241 -0.0598,-0.0389 l -0.0146,-0.009 c -0.0225,-0.0135 -0.0458,-0.0265 -0.0696,-0.0392 l -0.0206,-0.0106 c -0.022,-0.0108 -0.0442,-0.0214 -0.0709,-0.0339 l -0.0103,-0.005 h -0.003 c 1.16416,0.0899 2.07962,0.89455 2.07962,1.87034 v 1.52558 c 0,1.03638 -1.03187,1.87854 -2.29764,1.87854 z m -2.46222,0 c -1.13771,0 -2.06375,-0.84323 -2.06375,-1.87854 v -1.22476 -0.007 c 0,-0.004 0.003,-0.009 0.003,-0.0146 l 0.003,-0.008 c 0.003,-0.008 0.005,-0.0164 0.008,-0.0265 l 0.003,-0.006 c 0.004,-0.0119 0.009,-0.0265 0.0164,-0.0452 0.008,-0.0188 0.0145,-0.0354 0.0251,-0.0571 0.009,-0.0177 0.0185,-0.037 0.0296,-0.0558 l 0.007,-0.0122 c 0.0108,-0.0182 0.023,-0.0378 0.0349,-0.0561 l 0.0164,-0.0227 c 0.0132,-0.0183 0.0265,-0.0368 0.0415,-0.0548 l 0.0111,-0.014 0.0101,-0.0119 a 1.2744979,1.2744979 0 0 1 0.0968,-0.099 l 0.0122,-0.0108 c 0.028,-0.0265 0.0603,-0.0529 0.0929,-0.0775 l 0.0116,-0.009 a 1.7279937,1.7279937 0 0 1 0.19949,-0.127 l 0.0199,-0.0103 c 0.0513,-0.0264 0.10292,-0.0529 0.15689,-0.0751 l 0.006,-0.003 c 0.0265,-0.0119 0.0566,-0.0233 0.086,-0.0341 0.0122,-0.004 0.0241,-0.009 0.0376,-0.013 0.05,-0.018 0.10318,-0.0352 0.15875,-0.0511 l 0.0505,-0.014 0.0288,-0.008 c 0.009,-0.003 0.0185,-0.006 0.0288,-0.008 l 0.22331,-0.0516 a 0.85592707,0.85592707 0 0 0 -0.3056,0.65458 v 1.58989 a 0.88079791,0.88079791 0 0 0 0.89191,0.86756 h 3.64199 a 0.90513957,0.90513957 0 0 0 0.45959,-0.12409 c -0.31406,0.43101 -0.96917,0.92366 -2.33469,1.10226 z m 6.42329,-0.003 v -5.27156 h 3.90472 a 2.4902583,2.4902583 0 0 1 1.2499,0.25744 1.2498917,1.2498917 0 0 1 0.56409,1.14856 2.568575,2.568575 0 0 1 -0.064,0.65616 0.9442979,0.9442979 0 0 1 -0.1987,0.37465 c 0.34686,0.21881 0.52281,0.62521 0.52281,1.21126 0,0.57362 -0.14684,0.99325 -0.43603,1.24725 a 1.9579166,1.9579166 0 0 1 -1.31366,0.37597 z m 1.22899,-1.10305 h 2.89243 c 0.45191,0 0.635,-0.16722 0.635,-0.57679 0,-0.25744 -0.0794,-0.52044 -0.67204,-0.52044 h -2.8575 z m 0,-2.20001 h 2.69029 c 0.50852,0 0.57864,-0.20294 0.57864,-0.42333 0,-0.23416 -0.0714,-0.4498 -0.58605,-0.4498 h -2.68288 z m 5.70495,3.30279 V 594.251 h 1.24936 v 5.26521 z m -17.47017,0 v -3.13002 a 0.97895832,0.97895832 0 0 0 -0.3101,-0.77311 1.2628562,1.2628562 0 0 0 -0.85989,-0.27914 h -1.05834 a 1.2610042,1.2610042 0 0 0 -0.85963,0.27914 0.9665229,0.9665229 0 0 0 -0.31035,0.77311 v 3.13002 h -1.22873 v -3.13002 a 0.97895832,0.97895832 0 0 0 -0.31009,-0.77311 1.2633854,1.2633854 0 0 0 -0.86016,-0.27914 h -1.05833 a 1.2610042,1.2610042 0 0 0 -0.85963,0.27914 0.96519999,0.96519999 0 0 0 -0.31036,0.77311 v 3.13002 h -1.2282 v -3.02418 a 2.1465646,2.1465646 0 0 1 0.64268,-1.66979 2.5280937,2.5280937 0 0 1 1.75524,-0.57732 h 1.05834 a 2.5270354,2.5270354 0 0 1 1.75551,0.57732 c 0.0103,0.009 0.019,0.0198 0.0288,0.0296 0.0101,-0.01 0.0188,-0.0204 0.0294,-0.0296 a 2.5278291,2.5278291 0 0 1 1.75499,-0.57732 h 1.05833 a 2.5267708,2.5267708 0 0 1 1.75524,0.57732 2.1457708,2.1457708 0 0 1 0.64268,1.66979 v 3.02418 z m -11.45435,0 v -3.13002 a 0.97895832,0.97895832 0 0 0 -0.31009,-0.77311 1.2625917,1.2625917 0 0 0 -0.85989,-0.27914 h -1.05834 a 1.2602104,1.2602104 0 0 0 -0.85936,0.27914 0.96625832,0.96625832 0 0 0 -0.3101,0.77311 v 3.13002 h -1.22872 v -3.02418 a 2.1481521,2.1481521 0 0 1 0.64294,-1.66979 2.5280937,2.5280937 0 0 1 1.75524,-0.57732 h 1.05834 a 2.5275646,2.5275646 0 0 1 1.75551,0.57732 2.1478875,2.1478875 0 0 1 0.6432,1.66979 v 3.02418 z m 15.57682,-5.28002 h 2.70457 c 0.0386,0 0.0757,0 0.11218,0.003 h 0.008 l 0.0408,0.003 c 0.0206,0 0.0405,0.003 0.0608,0.005 0.0265,0.002 0.0513,0.005 0.0762,0.008 h 0.009 c 0.0265,0.004 0.0511,0.008 0.0759,0.0124 l 0.0264,0.006 a 1.3697479,1.3697479 0 0 1 1.03929,0.84984 c 0,0 0,0.002 0,0.003 q 0.0228,0.0545 0.0415,0.109 l 0.0206,0.0635 c 0.009,0.0265 0.0161,0.0529 0.023,0.0794 l 0.007,0.0286 c 0.007,0.0265 0.0124,0.0529 0.018,0.0775 l 0.0122,0.0667 a 0.90090624,0.90090624 0 0 0 -0.70512,-0.33681 h -3.6396 c -0.0312,0 -0.0627,0.002 -0.0894,0.004 h -0.01 l -0.0265,0.002 h -0.006 l -0.0492,0.004 v 0 h -0.0111 -0.008 v 0 h -0.006 -0.0159 c -0.0265,0.003 -0.0529,0.006 -0.0836,0.01 v 0 h -0.009 c -0.0296,0.004 -0.0614,0.008 -0.095,0.013 h -0.005 l -0.0164,0.002 -0.0111,0.002 h -0.003 c -0.0384,0.006 -0.0794,0.013 -0.12012,0.0206 v 0 c -0.0878,0.0164 -0.1823,0.0368 -0.28019,0.0627 -0.013,0.003 -0.0243,0.007 -0.036,0.01 -0.0116,0.003 -0.0153,0.005 -0.0238,0.007 -0.0185,0.005 -0.0368,0.0103 -0.0545,0.0151 -0.0574,0.0167 -0.11377,0.0347 -0.16616,0.0529 l -0.0402,0.0138 c -0.0302,0.0119 -0.0603,0.0233 -0.0884,0.0352 l -0.006,0.003 c -0.0593,0.0249 -0.11562,0.0529 -0.17092,0.0815 l -0.0265,0.0138 a 1.7740312,1.7740312 0 0 0 -0.21801,0.13996 l -0.006,0.004 c -0.013,0.01 -0.0249,0.0198 -0.0373,0.0296 -0.0238,0.0196 -0.0474,0.0389 -0.0683,0.0582 l -0.0132,0.0119 a 1.3337646,1.3337646 0 0 0 -0.10901,0.11192 l -0.008,0.009 c -0.003,0.005 -0.007,0.009 -0.0138,0.018 -0.0167,0.0204 -0.0318,0.0405 -0.0476,0.0616 l -0.0169,0.0249 c -0.003,0.004 -0.006,0.009 -0.008,0.0124 0.0323,-0.9996 0.94959,-1.81213 2.07248,-1.81213 z"
         inkscape:connector-curvature="0"
         style="fill:#0b4dcc;stroke-width:0.26458332" />
    </g>
  </g>
</svg>
