<?xml version="1.0" encoding="UTF-8" standalone="no"?>
<svg xmlns:dc="http://purl.org/dc/elements/1.1/" xmlns:cc="http://creativecommons.org/ns#" xmlns:rdf="http://www.w3.org/1999/02/22-rdf-syntax-ns#" xmlns:svg="http://www.w3.org/2000/svg" xmlns="http://www.w3.org/2000/svg" xmlns:sodipodi="http://sodipodi.sourceforge.net/DTD/sodipodi-0.dtd" xmlns:inkscape="http://www.inkscape.org/namespaces/inkscape" width="288" height="300" viewBox="0 0 1632 1701" version="1.0" id="svg2" sodipodi:version="0.32" inkscape:version="0.46" sodipodi:docname="ITC.svg" inkscape:output_extension="org.inkscape.output.svg.inkscape">
  <metadata id="metadata43">
    <rdf:RDF>
      <cc:Work rdf:about="">
        <dc:format>image/svg+xml</dc:format>
        <dc:type rdf:resource="http://purl.org/dc/dcmitype/StillImage"/>
      </cc:Work>
    </rdf:RDF>
  </metadata>
  <defs id="defs41">
    <inkscape:perspective sodipodi:type="inkscape:persp3d" inkscape:vp_x="0 : 1063.125 : 1" inkscape:vp_y="0 : 1000 : 0" inkscape:vp_z="2040 : 1063.125 : 1" inkscape:persp3d-origin="1020 : 708.75 : 1" id="perspective45"/>
  </defs>
  <sodipodi:namedview inkscape:window-height="669" inkscape:window-width="640" inkscape:pageshadow="2" inkscape:pageopacity="0.0" guidetolerance="10.0" gridtolerance="10.0" objecttolerance="10.0" borderopacity="1.0" bordercolor="#666666" pagecolor="#ffffff" id="base" showgrid="false" inkscape:zoom="0.21728395" inkscape:cx="1020" inkscape:cy="1063.125" inkscape:window-x="138" inkscape:window-y="95" inkscape:current-layer="svg2"/>
  <g id="#cee4f6ff"/>
  <g id="#062f62ff">
    <path d="M 270.82,959.84 C 450.04,646.06 629.25,332.28 808.49,18.52 C 775.01,233.35 741.4,448.15 707.92,662.98 C 707.68,665.23 705.52,666.49 704.22,668.14 C 475.42,913.11 246.57,1158.03 17.79,1403.02 C 101.96,1255.19 186.52,1107.59 270.82,959.84 z" id="path6" style="opacity:1;fill:#062f62"/>
    <path d="M 826.34,18.43 C 1090.22,480 1353.84,941.72 1617.69,1403.31 C 1512.55,1291.15 1407.67,1178.73 1302.6,1066.49 C 1177.75,932.95 1052.88,799.42 928.02,665.89 C 926.74,664.18 926.96,661.86 926.53,659.88 C 893.17,446.06 859.7,232.25 826.34,18.43 z" id="path8" style="opacity:1;fill:#062f62"/>
    <path d="M 442.6,1001.53 C 449.44,994.12 455.79,986.23 462.9,979.1 C 507.51,978.88 552.14,979.03 596.76,979.02 C 519.57,1120.47 441.98,1261.7 364.8,1403.15 C 271.54,1403.15 178.29,1403.19 85.03,1403.14 C 204.26,1269.3 323.4,1135.39 442.6,1001.53 z" id="path10" style="opacity:1;fill:#062f62"/>
    <path d="M 640.95,979 C 718.82,979.02 796.68,978.95 874.54,979.02 C 881.43,1026.07 888.41,1073.1 895.28,1120.15 C 869.52,1120.17 843.77,1120.18 818.01,1120.17 C 818,1214.5 818.01,1308.83 818,1403.17 C 736.42,1403.19 654.84,1403.12 573.27,1403.21 C 585.08,1362.57 597.48,1322.1 609.52,1281.53 C 625.56,1228.02 641.48,1174.48 657.57,1120.99 C 631.22,1121.01 604.88,1120.99 578.53,1121.01 C 599.35,1073.68 620.13,1026.33 640.95,979 z" id="path12" style="opacity:1;fill:#062f62"/>
    <path d="M 952.18,981.15 C 960.73,977.62 970.05,979.27 979.01,979 C 1043.67,978.98 1108.33,979.03 1173,978.97 C 1211.12,1021.56 1249.02,1064.38 1287.12,1107 C 1234.38,1107.02 1181.63,1106.96 1128.89,1107.04 C 1118.45,1107.28 1110.61,1119.74 1115.58,1129.15 C 1131.58,1159.15 1147.89,1189 1163.97,1218.97 C 1170.25,1232.88 1184.77,1242.4 1200.03,1242.63 C 1262.36,1242.64 1324.69,1242.63 1387.01,1242.63 C 1393.85,1242.74 1400.71,1242.41 1407.54,1242.77 C 1455.04,1296.04 1502.27,1349.58 1549.63,1402.98 C 1392.09,1403.02 1234.56,1403.01 1077.02,1402.99 C 1070.05,1402.81 1063.01,1403.83 1056.11,1402.46 C 1039.29,1399.85 1024.16,1388.5 1016.91,1373.11 C 1013.34,1366.15 1012.31,1358.32 1010.26,1350.86 C 983.09,1241.86 955.78,1132.88 928.68,1023.86 C 924.57,1006.39 935.23,987.04 952.18,981.15 z" id="path14" style="opacity:1;fill:#062f62"/>
    <path d="M 430.97,1523.93 C 445.42,1511.46 464.74,1503.93 483.97,1505.96 C 495.94,1506.94 507.46,1511.7 516.89,1519.11 C 519.83,1521.26 524.06,1523.91 527.57,1521.42 C 532.08,1517.63 530.71,1510.54 535.1,1506.65 C 536.43,1507.45 538.36,1508.04 538.07,1510.03 C 538.38,1529.67 538.31,1549.34 539.04,1568.97 C 539.13,1571.7 538.95,1574.48 537.96,1577.08 C 536.57,1576.64 534.66,1576.52 534.34,1574.77 C 531.03,1565.47 528.48,1555.84 524.11,1546.95 C 520.21,1539.17 516,1531.41 510.09,1524.96 C 503.37,1517.45 494.17,1511.81 484.01,1510.81 C 470.77,1509.57 455.79,1513.45 447.73,1524.74 C 441.89,1532.75 439.57,1542.6 437.6,1552.14 C 435.04,1566.97 434.31,1582.03 433.6,1597.05 C 433.4,1615.71 433.66,1634.96 440.47,1652.62 C 444.27,1662.46 450.69,1671.83 460.27,1676.76 C 470.64,1682.19 482.95,1681.52 494.07,1679.1 C 507.07,1676.32 518.87,1668.13 525.59,1656.6 C 532.39,1645.61 534.38,1632.55 535.07,1619.87 C 537.38,1619.28 539.75,1619.4 542.08,1619.87 C 542.41,1621.22 543.18,1622.54 542.91,1624.02 C 542.09,1633.21 540.38,1642.37 537.23,1651.07 C 531.5,1667.36 516.56,1679.51 499.91,1683.37 C 488.16,1686.04 475.72,1687.54 463.87,1684.59 C 449.87,1681.22 436.95,1674.06 425.97,1664.83 C 422.23,1661.61 418.67,1658.07 416.22,1653.75 C 411.88,1646.34 407.13,1639.1 404.04,1631.04 C 395.73,1609.81 395.79,1585.45 404.22,1564.27 C 410.12,1549.15 419.09,1535.06 430.97,1523.93 z" id="path16" style="opacity:1;fill:#062f62"/>
    <path d="M 1509.98,1507.43 C 1513.69,1507.18 1517.4,1506.37 1521.14,1506.81 C 1523.51,1507.25 1525.12,1509.55 1524.97,1511.93 C 1525.05,1561.27 1525,1610.62 1524.99,1659.96 C 1524.8,1665.03 1524.63,1671.41 1529.53,1674.48 C 1535.53,1677.49 1542.54,1676.73 1549.05,1676.84 C 1550.18,1678.39 1550.4,1681.16 1547.91,1681.3 C 1532.95,1682.28 1517.96,1682.85 1502.99,1683.59 C 1500.24,1683.89 1496.72,1682.95 1496.14,1679.86 C 1495.69,1674.89 1496.28,1669.88 1495.91,1664.92 C 1495.44,1664.26 1494.97,1663.64 1494.5,1663.07 C 1491.14,1666.84 1488.09,1670.95 1484.06,1674.08 C 1473.69,1682.75 1459.27,1686.33 1446.07,1683.27 C 1431.72,1680.2 1419.7,1669.95 1412.53,1657.4 C 1402.91,1640.62 1400.4,1619.79 1406.13,1601.29 C 1411.1,1585.53 1421.89,1571.47 1436.42,1563.43 C 1447.01,1557.57 1459.89,1555.08 1471.65,1558.62 C 1481.55,1561.41 1489.28,1568.76 1495.07,1576.98 C 1496.63,1574.56 1495.77,1571.63 1495.87,1568.97 C 1495.76,1554.97 1495.88,1540.97 1495.86,1526.97 C 1495.94,1522.44 1493.06,1517.92 1488.77,1516.36 C 1482.66,1514.09 1476.03,1514.94 1469.68,1514.3 C 1469.73,1512.71 1469.17,1510.64 1471.2,1510.14 C 1484.13,1509.24 1497.05,1508.27 1509.98,1507.43 M 1458.36,1563.47 C 1450.74,1565.68 1445.48,1572.35 1442.42,1579.36 C 1436.82,1592.11 1436,1606.27 1435.58,1620 C 1435.85,1629.73 1436.19,1639.54 1438.27,1649.09 C 1439.96,1656.63 1442.6,1664.32 1448.01,1670.06 C 1453.84,1676.37 1463.37,1678.76 1471.58,1676.46 C 1476.88,1674.8 1481.42,1671.13 1484.57,1666.6 C 1491.29,1657.25 1493.98,1645.7 1495.3,1634.44 C 1496.78,1619.06 1496.23,1603.2 1491.44,1588.41 C 1488.62,1580.19 1484.39,1571.94 1477.22,1566.71 C 1471.9,1562.73 1464.7,1561.5 1458.36,1563.47 z" id="path18" style="opacity:1;fill:#062f62"/>
    <path d="M 826.2,1509.15 C 835.6,1506.29 846.38,1513.26 847.42,1523.06 C 849.16,1532.77 840.74,1542.49 830.93,1542.34 C 822.35,1542.7 814.42,1535.55 813.84,1527 C 812.9,1519.06 818.48,1511.08 826.2,1509.15 z" id="path20" style="opacity:1;fill:#062f62"/>
    <path d="M 1154.18,1509.11 C 1164.59,1506 1176.12,1515.09 1175.31,1525.96 C 1175.35,1536.18 1164.76,1544.41 1154.86,1541.98 C 1146.44,1540.32 1140.34,1531.63 1141.72,1523.14 C 1142.44,1516.49 1147.71,1510.69 1154.18,1509.11 z" id="path22" style="opacity:1;fill:#062f62"/>
    <path d="M 1229.06,1511.96 C 1229.33,1508.68 1234.91,1508.79 1235.18,1512.04 C 1235.21,1526.68 1235.14,1541.34 1235.17,1555.98 C 1234.77,1558.15 1236.73,1560.11 1238.89,1559.97 C 1249.26,1560.15 1259.65,1559.79 1270.02,1560.12 C 1273.1,1560.35 1273.57,1564.9 1271.01,1566.24 C 1260.64,1566.21 1250.26,1566.04 1239.9,1566.23 C 1236.87,1566.07 1234.86,1569.13 1235.19,1571.94 C 1235.13,1601.95 1235.21,1631.97 1235.16,1661.99 C 1234.95,1667.57 1237.07,1673.89 1242.35,1676.55 C 1249.98,1680.25 1260.15,1678.31 1265.43,1671.51 C 1271.01,1664.31 1272.43,1654.81 1272.4,1645.94 C 1272.16,1644.28 1273.04,1642.89 1273.8,1641.53 C 1275.26,1641.76 1277.28,1641.17 1278.2,1642.78 C 1279.55,1644.55 1278.71,1646.87 1278.67,1648.92 C 1277.87,1659.94 1274.61,1671.57 1266.39,1679.39 C 1260.77,1684.95 1252.75,1687.48 1244.98,1687.6 C 1235.79,1687.78 1226.22,1686.56 1218.17,1681.86 C 1210.5,1677.47 1205.24,1668.89 1205.38,1659.99 C 1205.41,1631.32 1205.39,1602.65 1205.4,1573.99 C 1205.13,1571.52 1205.48,1568.35 1203.24,1566.73 C 1200.33,1565.57 1197.04,1566.34 1193.99,1566.15 C 1190.55,1565.85 1186.7,1567.24 1183.7,1565.06 C 1183.6,1562.92 1184.1,1559.85 1186.91,1560.05 C 1201.34,1561.31 1214.78,1551.61 1221.15,1539.15 C 1225.32,1530.62 1227.62,1521.3 1229.06,1511.96 z" id="path24" style="opacity:1;fill:#062f62"/>
    <path d="M 214.83,1512 C 264.76,1512.01 314.69,1511.98 364.62,1512.01 C 364.52,1534.79 364.77,1557.57 364.5,1580.34 C 364.71,1583.52 360.67,1584.15 358.83,1582.12 C 356.35,1565.4 351.15,1548.96 342.48,1534.4 C 338.51,1527.96 333.12,1521.55 325.47,1519.65 C 319.73,1518.39 313.82,1517.72 307.96,1518.11 C 305.8,1519.62 305.59,1522.58 305.58,1525.01 C 305.64,1571.66 305.59,1618.32 305.6,1664.97 C 305.41,1668.96 307.55,1673.06 311.37,1674.58 C 319.9,1678.18 329.47,1676.9 338.33,1678.92 C 338.75,1681.13 337.84,1683.82 335.07,1683.33 C 304.39,1683.4 273.7,1683.31 243.02,1683.38 C 241.46,1683.26 239.44,1683.56 238.51,1681.98 C 238.54,1681.17 238.61,1679.53 238.64,1678.72 C 248.57,1677.07 259.12,1676.97 268.23,1672.16 C 270.93,1670.72 274.13,1668.53 273.98,1665.09 C 274.01,1617.73 273.99,1570.36 273.99,1523 C 274.15,1521 273.41,1518.24 271.02,1518.09 C 263.58,1517.62 255.62,1518.27 249.09,1522.19 C 240.9,1527.79 235.81,1536.7 231.54,1545.43 C 225.93,1556.82 223,1569.26 220.39,1581.61 C 219.42,1584.07 216.47,1583.45 214.81,1582.09 C 214.83,1558.72 214.82,1535.36 214.83,1512 z" id="path26" style="opacity:1;fill:#062f62"/>
    <path d="M 85.73,1517.22 C 85.49,1515.44 85.42,1512.7 87.93,1512.87 C 115.97,1512.83 144.02,1512.82 172.07,1512.86 C 174.59,1512.66 174.43,1515.43 174.26,1517.19 C 166.51,1519.01 158.08,1518.32 150.76,1521.87 C 147.72,1523.32 145.72,1526.62 146,1530.02 C 146.01,1575.37 145.98,1620.71 146.01,1666.06 C 145.73,1670.01 148.73,1673.37 152.31,1674.62 C 158.88,1676.95 165.96,1677.24 172.83,1678.12 C 174.47,1678.61 174.71,1680.45 174.17,1681.89 C 172.93,1683.47 170.78,1683.07 169.02,1683.2 C 142.34,1683.12 115.66,1683.22 88.98,1683.14 C 86.55,1683.51 84.88,1681.37 85.7,1679.1 C 87.36,1677.35 89.99,1677.99 92.13,1677.57 C 97.57,1676.82 103.2,1676.45 108.33,1674.34 C 111.67,1673.03 114.13,1669.69 113.98,1666.05 C 114.02,1620.68 113.99,1575.31 113.99,1529.95 C 114.25,1526.02 111.51,1522.51 107.92,1521.22 C 100.82,1518.5 93.06,1518.81 85.73,1517.22 z" id="path28" style="opacity:1;fill:#062f62"/>
    <path d="M 638.2,1513.19 C 667.78,1512.76 697.4,1513.11 726.99,1513.01 C 729.75,1512.26 731.32,1516.56 728.79,1517.76 C 720.39,1519.04 711.49,1518.45 703.42,1521.53 C 699.14,1523.03 696.85,1527.58 697.17,1531.95 C 697.19,1576.33 697.1,1620.72 697.2,1665.1 C 696.86,1669.8 700.2,1674.11 704.69,1675.31 C 712.61,1677.56 721,1678.5 729.18,1677.2 C 740.53,1675.8 752.81,1673.6 761.39,1665.38 C 773.69,1653.57 778.36,1636.36 780.99,1620.05 C 781.47,1617.84 781.29,1614.38 783.99,1613.63 C 786.76,1614.37 787.01,1617.6 787,1619.98 C 787,1639.67 786.99,1659.36 787.01,1679.06 C 787.38,1680.9 786.04,1683.07 784.05,1683.09 C 738.38,1683.25 692.7,1683.46 647.02,1683.38 C 644.06,1683.21 640.99,1683.8 638.12,1682.99 C 635.94,1681.99 636.76,1678.42 639.03,1678.35 C 645.92,1677.31 653.15,1677.35 659.69,1674.68 C 663.54,1673.17 665.91,1669.12 665.64,1665.04 C 665.64,1620.36 665.62,1575.68 665.64,1531 C 665.9,1526.65 662.92,1522.6 658.84,1521.24 C 652.48,1519.12 645.7,1518.81 639.1,1517.98 C 636.57,1517.87 636.12,1514.32 638.2,1513.19 z" id="path30" style="opacity:1;fill:#062f62"/>
    <path d="M 949.55,1565.55 C 955.86,1561.13 963.29,1557.98 971.08,1557.75 C 980.27,1557.33 990.02,1558.77 997.6,1564.35 C 1003.78,1568.88 1008.06,1575.66 1010.45,1582.87 C 1011.02,1584.66 1011.95,1586.3 1013.01,1587.87 C 1015.98,1584.98 1016.98,1580.78 1019.68,1577.7 C 1025.19,1571.08 1031.76,1565.18 1039.58,1561.43 C 1048.96,1556.63 1060.07,1556.98 1070.12,1559.16 C 1083.93,1562.12 1095.74,1574.66 1096.09,1589.05 C 1096.54,1597.02 1095.98,1605 1096,1612.98 C 1095.08,1630.31 1095.47,1647.69 1094.57,1665.02 C 1094.28,1668.82 1095.42,1673.15 1099.17,1674.91 C 1104.81,1677.5 1111.18,1677.82 1117.23,1678.93 C 1117.54,1680.31 1117.5,1681.73 1117.2,1683.14 C 1103.47,1683.66 1089.72,1683.22 1075.99,1683.37 C 1064.25,1683.22 1052.5,1683.65 1040.78,1683.14 C 1040.43,1681.72 1040.42,1680.3 1040.79,1678.93 C 1046.74,1677.93 1052.87,1677.5 1058.55,1675.34 C 1061.89,1674.02 1064.11,1670.58 1063.9,1666.99 C 1064.16,1643 1063.89,1619.01 1064.03,1595.03 C 1064.65,1588.4 1064.49,1581.4 1061.64,1575.27 C 1059.41,1570.44 1054.37,1567.08 1049.03,1567.13 C 1041.18,1566.79 1033.89,1571.06 1028.78,1576.74 C 1020.32,1586.21 1015.26,1598.35 1013.32,1610.82 C 1011.43,1619.08 1012.11,1627.57 1012,1635.97 C 1012.03,1646.34 1011.93,1656.72 1012.03,1667.1 C 1011.85,1670.7 1014.19,1674.05 1017.51,1675.38 C 1022.76,1677.49 1028.51,1677.68 1033.97,1678.96 C 1035.55,1679.83 1035.52,1682.2 1033.9,1683.05 C 1031.97,1683.51 1029.98,1683.32 1028.03,1683.37 C 1005.67,1683.3 983.31,1683.42 960.95,1683.34 C 958.59,1683.97 956.46,1681.05 958.25,1679.21 C 964.7,1677.17 972.17,1677.97 978.02,1674.13 C 982.24,1671.16 981.35,1665.46 981.4,1661 C 981.44,1637 981.26,1613 981.52,1589.01 C 981.04,1582.36 980.02,1574.85 974.82,1570.12 C 970.81,1566.45 964.82,1566.62 959.93,1568.09 C 952.68,1570.15 946.95,1575.55 942.69,1581.56 C 937.45,1589.18 933.61,1597.82 932.09,1606.98 C 928.17,1624.72 930.04,1642.96 929.6,1660.96 C 929.59,1665.6 928.88,1671.67 933.54,1674.47 C 939.15,1677.55 945.79,1677.62 951.94,1678.9 C 952.19,1679.35 952.67,1680.27 952.91,1680.72 C 952.69,1681.32 952.24,1682.52 952.02,1683.12 C 941.68,1683.68 931.31,1683.22 920.96,1683.37 C 905.61,1683.3 890.25,1683.52 874.91,1683.27 C 872.32,1683.2 872.39,1680.18 873.74,1678.71 C 880.13,1678.15 886.66,1677.67 892.8,1675.67 C 896.49,1674.55 899.3,1670.98 898.97,1667.05 C 899,1637.32 899.03,1607.58 898.97,1577.85 C 899.09,1573.91 895.98,1570.61 892.35,1569.57 C 887.08,1567.99 881.56,1567.48 876.12,1566.8 C 872.71,1566.3 874.07,1561.09 876.92,1561.03 C 891.95,1560.47 906.97,1559.64 921.99,1558.83 C 925.42,1558.45 929.48,1560.36 929.79,1564.18 C 930.53,1571.05 928.98,1577.96 929.71,1584.86 C 930.91,1587.35 932.8,1584.9 933.42,1583.38 C 936.85,1575.97 943.07,1570.31 949.55,1565.55 z" id="path32" style="opacity:1;fill:#062f62"/>
    <path d="M 1333.24,1558.22 C 1349.72,1555.94 1367.71,1560.42 1379.89,1572.11 C 1391.2,1583.08 1395.29,1599.6 1394.52,1614.94 C 1394.61,1616.8 1392.93,1618.41 1391.06,1618.02 C 1366.06,1617.9 1341.07,1618.17 1316.08,1618.22 C 1313.57,1618.23 1312.76,1621.01 1312.72,1623.07 C 1311.85,1635.99 1312.42,1649.49 1317.68,1661.51 C 1321.2,1669.65 1328.31,1676.37 1337.06,1678.39 C 1350.56,1681.43 1365.95,1677.82 1375.6,1667.58 C 1381.71,1661.18 1385.55,1652.83 1387.16,1644.18 C 1387.42,1642.33 1388.87,1640.23 1391.02,1640.73 C 1394.44,1641.22 1393.4,1645.47 1393.27,1647.92 C 1390.55,1662.41 1380.08,1675.08 1366.47,1680.71 C 1349.65,1687.74 1329.5,1687.5 1313.42,1678.59 C 1295.42,1668.99 1282.98,1650.11 1280.71,1629.9 C 1276.19,1597.37 1300.74,1563.56 1333.24,1558.22 M 1336.44,1563.57 C 1331.14,1564.71 1326.35,1567.95 1323.27,1572.4 C 1316.38,1582.16 1315.16,1594.42 1313.68,1605.93 C 1313.14,1608.82 1314.44,1613.03 1318.05,1612.78 C 1330.72,1612.91 1343.39,1612.82 1356.06,1612.81 C 1359.56,1612.92 1364.01,1612.12 1365.23,1608.27 C 1366.84,1602.69 1366.74,1596.78 1366.4,1591.04 C 1365.98,1583.08 1364.34,1574.44 1358.44,1568.64 C 1352.68,1563.05 1343.99,1562.3 1336.44,1563.57 z" id="path34" style="opacity:1;fill:#062f62"/>
    <path d="M 827.08,1560.59 C 832.09,1560.55 837.07,1559.5 842.07,1559.9 C 844.96,1560.32 846.29,1563.25 846.01,1565.93 C 846.04,1599.98 845.95,1634.04 846.03,1668.09 C 845.89,1671.52 848.6,1674.35 851.73,1675.35 C 857.96,1677.37 864.58,1677.72 870.99,1678.93 C 873.18,1679.75 872.42,1683.53 870.04,1683.29 C 844.7,1683.44 819.35,1683.38 794.02,1683.31 C 791.52,1683.64 791.46,1680.79 791.97,1679.14 C 797.9,1677.47 803.9,1676.02 809.88,1674.51 C 814.06,1673.43 817.11,1669.42 816.81,1665.07 C 816.87,1636.34 816.83,1607.61 816.8,1578.89 C 817,1575.02 814.57,1571.35 810.97,1569.98 C 805.29,1567.91 799.18,1567.61 793.25,1566.75 C 791.48,1566.25 791.97,1564.25 791.72,1562.91 C 794.36,1561.88 797.21,1561.88 800.01,1561.84 C 809.04,1561.65 818.04,1560.75 827.08,1560.59 z" id="path36" style="opacity:1;fill:#062f62"/>
    <path d="M 1135.04,1561.59 C 1145.69,1560.81 1156.38,1560.7 1167.02,1559.8 C 1169.8,1559.35 1173.65,1560.71 1173.56,1564.07 C 1173.68,1598.4 1173.56,1632.74 1173.63,1667.07 C 1173.45,1670.54 1175.53,1673.85 1178.8,1675.1 C 1185.23,1677.43 1192.16,1677.65 1198.83,1678.95 C 1201.3,1680.2 1199.64,1683.99 1197.05,1683.34 C 1172.01,1683.36 1146.97,1683.42 1121.94,1683.32 C 1119.67,1683.7 1118.4,1680.48 1120.25,1679.26 C 1126.24,1676.83 1132.78,1676.18 1138.86,1674.05 C 1142.58,1672.77 1144.7,1668.9 1144.61,1665.11 C 1144.64,1636.36 1144.64,1607.62 1144.61,1578.87 C 1144.8,1574.81 1142.1,1571.04 1138.27,1569.78 C 1132.73,1567.98 1126.87,1567.48 1121.11,1566.83 C 1119.36,1566.25 1119.75,1564.21 1119.57,1562.83 C 1124.58,1561.33 1129.89,1562.06 1135.04,1561.59 z" id="path38" style="opacity:1;fill:#062f62"/>
  </g>
</svg>