<?xml version="1.0" encoding="UTF-8" standalone="no"?>
<svg
   xmlns:dc="http://purl.org/dc/elements/1.1/"
   xmlns:cc="http://creativecommons.org/ns#"
   xmlns:rdf="http://www.w3.org/1999/02/22-rdf-syntax-ns#"
   xmlns:svg="http://www.w3.org/2000/svg"
   xmlns="http://www.w3.org/2000/svg"
   version="1.1"
   id="svg6202"
   viewBox="0 0 243.13096 39.37125"
   height="11.111442mm"
   width="68.616959mm">
  <defs
     id="defs6204">
    <clipPath
       id="clipPath2312"
       clipPathUnits="userSpaceOnUse">
      <path
         id="path2314"
         d="m 973.912,779.437 200.104,0 0,35.525 -200.104,0 0,-35.525 z" />
    </clipPath>
    <clipPath
       id="clipPath2286"
       clipPathUnits="userSpaceOnUse">
      <path
         id="path2288"
         d="m 977.049,809.195 c 0.003,0.005 0.01,0.009 0.015,0.014 l 0,0 c -0.005,-0.005 -0.012,-0.009 -0.015,-0.014" />
    </clipPath>
    <clipPath
       id="clipPath2296"
       clipPathUnits="userSpaceOnUse">
      <path
         id="path2298"
         d="m 977.04907,809.2114 0.0169,-0.002 -0.002,-0.0165 -0.0169,0.002 0.002,0.0165 z" />
    </clipPath>
    <linearGradient
       id="linearGradient2300"
       spreadMethod="pad"
       gradientTransform="matrix(25.813003,-3.3093719,-3.3093719,-25.813003,981.76077,808.59933)"
       gradientUnits="userSpaceOnUse"
       y2="0"
       x2="1"
       y1="0"
       x1="0">
      <stop
         id="stop2302"
         offset="0"
         style="stop-opacity:1;stop-color:#1f4fa2" />
      <stop
         id="stop2304"
         offset="1"
         style="stop-opacity:1;stop-color:#0499db" />
    </linearGradient>
    <clipPath
       id="clipPath2260"
       clipPathUnits="userSpaceOnUse">
      <path
         id="path2262"
         d="m 977.071,809.219 c 0,-0.004 -0.005,-0.007 -0.007,-0.009 l 0,0 c 11.095,2.999 7.866,-10.81 -3.152,-24.013 l 0,0 0,-1.733 c 5.795,4.054 12.802,8.131 19.303,10.634 l 0,0 c 2.077,11.001 -4.423,16.452 -10.852,16.452 l 0,0 c -1.837,0 -3.667,-0.445 -5.292,-1.331" />
    </clipPath>
    <clipPath
       id="clipPath2270"
       clipPathUnits="userSpaceOnUse">
      <path
         id="path2272"
         d="m 968.96823,816.02811 30.51323,-3.91197 -4.62228,-36.0536 -30.51322,3.91197 4.62227,36.0536 z" />
    </clipPath>
    <linearGradient
       id="linearGradient2274"
       spreadMethod="pad"
       gradientTransform="matrix(25.918808,-3.322937,-3.322937,-25.918808,979.96854,794.46083)"
       gradientUnits="userSpaceOnUse"
       y2="0"
       x2="1"
       y1="0"
       x1="0">
      <stop
         id="stop2276"
         offset="0"
         style="stop-opacity:1;stop-color:#1f4fa2" />
      <stop
         id="stop2278"
         offset="1"
         style="stop-opacity:1;stop-color:#0499db" />
    </linearGradient>
    <clipPath
       id="clipPath2234"
       clipPathUnits="userSpaceOnUse">
      <path
         id="path2236"
         d="m 977.232,809.377 c -0.046,-0.044 -0.092,-0.09 -0.137,-0.136 l 0,0 c 0.046,0.047 0.098,0.095 0.153,0.144 l 0,0 0,10e-4 c -0.005,-0.003 -0.011,-0.006 -0.016,-0.009 m -0.161,-0.158 0,-0.001 10e-4,0 c 0.008,0.008 0.016,0.016 0.023,0.023 l 0,0 c -0.007,-0.007 -0.015,-0.015 -0.024,-0.022" />
    </clipPath>
    <clipPath
       id="clipPath2244"
       clipPathUnits="userSpaceOnUse">
      <path
         id="path2246"
         d="m 977.07492,809.40819 0.19516,-0.025 -0.024,-0.18763 -0.19516,0.025 0.024,0.18763 z" />
    </clipPath>
    <linearGradient
       id="linearGradient2248"
       spreadMethod="pad"
       gradientTransform="matrix(25.941803,-3.325882,-3.325882,-25.941803,981.79839,808.70766)"
       gradientUnits="userSpaceOnUse"
       y2="0"
       x2="1"
       y1="0"
       x1="0">
      <stop
         id="stop2250"
         offset="0"
         style="stop-opacity:1;stop-color:#1f4fa2" />
      <stop
         id="stop2252"
         offset="1"
         style="stop-opacity:1;stop-color:#0499db" />
    </linearGradient>
    <clipPath
       id="clipPath2208"
       clipPathUnits="userSpaceOnUse">
      <path
         id="path2210"
         d="m 977.263,809.398 c -0.004,-0.003 -0.009,-0.006 -0.014,-0.012 l 0,0 c 9.551,4.976 19.848,-2.589 18.392,-14.331 l 0,0 c 3.501,1.315 7.118,2.395 10.804,3.157 l 0,0 c -1.421,8.527 -9.538,14.326 -18.367,14.326 l 0,0 c -3.622,0 -7.365,-0.977 -10.815,-3.14" />
    </clipPath>
    <clipPath
       id="clipPath2218"
       clipPathUnits="userSpaceOnUse">
      <path
         id="path2220"
         d="m 977.72116,818.04456 31.15914,-3.99477 -2.9075,-22.67808 -31.1591,3.99477 2.90746,22.67808 z" />
    </clipPath>
    <linearGradient
       id="linearGradient2222"
       spreadMethod="pad"
       gradientTransform="matrix(25.918243,-3.3228607,-3.3228607,-25.918243,981.34816,805.22626)"
       gradientUnits="userSpaceOnUse"
       y2="0"
       x2="1"
       y1="0"
       x1="0">
      <stop
         id="stop2224"
         offset="0"
         style="stop-opacity:1;stop-color:#1f4fa2" />
      <stop
         id="stop2226"
         offset="1"
         style="stop-opacity:1;stop-color:#0499db" />
    </linearGradient>
    <clipPath
       id="clipPath2182"
       clipPathUnits="userSpaceOnUse">
      <path
         id="path2184"
         d="m 977.049,809.206 c 0.004,10e-4 0.009,0.003 0.015,0.004 l 0,0 c 0.002,0.002 0.007,0.005 0.007,0.008 l 0,0 c -0.005,-0.003 -0.014,-0.008 -0.022,-0.012" />
    </clipPath>
    <clipPath
       id="clipPath2192"
       clipPathUnits="userSpaceOnUse">
      <path
         id="path2194"
         d="m 977.04897,809.22067 0.0241,-0.003 -0.002,-0.0142 -0.0241,0.003 0.002,0.0142 z" />
    </clipPath>
    <linearGradient
       id="linearGradient2196"
       spreadMethod="pad"
       gradientTransform="matrix(25.134949,-3.2224426,-3.2224426,-25.134949,981.63815,808.62529)"
       gradientUnits="userSpaceOnUse"
       y2="0"
       x2="1"
       y1="0"
       x1="0">
      <stop
         id="stop2198"
         offset="0"
         style="stop-opacity:1;stop-color:#1f4fa2" />
      <stop
         id="stop2200"
         offset="1"
         style="stop-opacity:1;stop-color:#0499db" />
    </linearGradient>
    <clipPath
       id="clipPath2156"
       clipPathUnits="userSpaceOnUse">
      <path
         id="path2158"
         d="m 991.903,814.893 c -4.828,-0.301 -11.312,-2.175 -14.665,-5.51 l 0,0 c 0.007,0.006 0.016,0.01 0.025,0.015 l 0,0 c 1.224,1.094 4.586,3.017 9.736,3.69 l 0,0 c 7.141,0.86 18.423,-2.508 21.806,-14.435 l 0,0 c 3.35,0.56 7.119,0.892 10.525,0.831 l 0,0 c -4.288,9.503 -14.312,15.477 -25.38,15.477 l 0,0 c -0.679,0 -1.362,-0.022 -2.047,-0.068" />
    </clipPath>
    <clipPath
       id="clipPath2166"
       clipPathUnits="userSpaceOnUse">
      <path
         id="path2168"
         d="m 977.91883,820.27027 43.46807,-5.57286 -2.7378,-21.35423 -43.46801,5.57286 2.73774,21.35423 z" />
    </clipPath>
    <linearGradient
       id="linearGradient2170"
       spreadMethod="pad"
       gradientTransform="matrix(25.91803,-3.3228455,-3.3228455,-25.91803,981.88789,809.43057)"
       gradientUnits="userSpaceOnUse"
       y2="0"
       x2="1"
       y1="0"
       x1="0">
      <stop
         id="stop2172"
         offset="0"
         style="stop-opacity:1;stop-color:#1f4fa2" />
      <stop
         id="stop2174"
         offset="1"
         style="stop-opacity:1;stop-color:#0499db" />
    </linearGradient>
    <clipPath
       id="clipPath2130"
       clipPathUnits="userSpaceOnUse">
      <path
         id="path2132"
         d="m 977.212,809.368 c 0.007,0.004 0.013,0.007 0.02,0.009 l 0,0 c 10e-4,0.004 0.004,0.004 0.006,0.006 l 0,0 c -0.01,-0.004 -0.018,-0.009 -0.026,-0.015" />
    </clipPath>
    <clipPath
       id="clipPath2140"
       clipPathUnits="userSpaceOnUse">
      <path
         id="path2142"
         d="m 977.2124,809.38669 0.0278,-0.004 -0.002,-0.0185 -0.0278,0.004 0.002,0.0185 z" />
    </clipPath>
    <linearGradient
       id="linearGradient2144"
       spreadMethod="pad"
       gradientTransform="matrix(26.381073,-3.3822174,-3.3822174,-26.381073,981.88676,808.778)"
       gradientUnits="userSpaceOnUse"
       y2="0"
       x2="1"
       y1="0"
       x1="0">
      <stop
         id="stop2146"
         offset="0"
         style="stop-opacity:1;stop-color:#1f4fa2" />
      <stop
         id="stop2148"
         offset="1"
         style="stop-opacity:1;stop-color:#0499db" />
    </linearGradient>
    <clipPath
       id="clipPath478"
       clipPathUnits="userSpaceOnUse">
      <path
         id="path480"
         d="m 1007.1,841.89 0,-49.511 c 10.827,5.253 21.508,10.4 32.026,15.427 l 0,0 c 0.241,9.653 0.32,19.306 0.236,28.957 l 0,0 c 0,0.008 0,0.015 0,0.022 l 0,0 c 0,0.2 0,0.4 -0.01,0.599 l 0,0 c 0,0.017 -10e-4,0.032 -10e-4,0.048 l 0,0 c 0,0.195 0,0.39 0,0.586 l 0,0 c 0,0.015 0,0.031 0,0.047 l 0,0 c 0,0.412 -0.01,0.823 -0.014,1.235 l 0,0 c 0,0.042 -10e-4,0.083 -10e-4,0.125 l 0,0 c 0,0.158 0,0.315 -0.01,0.472 l 0,0 c -10e-4,0.061 0,0.124 0,0.186 l 0,0 c 0,0.134 0,0.269 -0.01,0.403 l 0,0 c -10e-4,0.072 0,0.144 0,0.216 l 0,0 c 0,0.135 0,0.27 0,0.405 l 0,0 c -10e-4,0.064 0,0.128 0,0.192 l 0,0 c 0,0.196 0,0.394 -0.01,0.591 l 0,0 -32.203,0 z" />
    </clipPath>
    <clipPath
       id="clipPath380"
       clipPathUnits="userSpaceOnUse">
      <path
         id="path382"
         d="m 1039.303,841.89 c 0.166,-11.361 0.107,-22.719 -0.177,-34.084 l 0,0 c 4.995,2.387 9.945,4.743 14.869,7.076 l 0,0 c 7.602,-19.54 14.164,-39.258 19.705,-59.086 l 0,0 0,86.094 -34.397,0 z" />
    </clipPath>
  </defs>
  <metadata
     id="metadata6207">
    <rdf:RDF>
      <cc:Work
         rdf:about="">
        <dc:format>image/svg+xml</dc:format>
        <dc:type
           rdf:resource="http://purl.org/dc/dcmitype/StillImage" />
        <dc:title></dc:title>
      </cc:Work>
    </rdf:RDF>
  </metadata>
  <g
     transform="translate(-301.29167,-520.78615)"
     id="layer1">
    <g
       id="g6518">
      <g
         id="g6617">
        <g
           id="g2126"
           transform="matrix(1.25,0,0,-1.25,-916.09833,1539.4874)">
          <g
             clip-path="url(#clipPath2130)"
             id="g2128">
            <g
               id="g2134">
              <g
                 id="g2136">
                <g
                   clip-path="url(#clipPath2140)"
                   id="g2138">
                  <path
                     id="path2150"
                     style="fill:url(#linearGradient2144);stroke:none"
                     d="m 977.212,809.368 c 0.007,0.004 0.013,0.007 0.02,0.009 l 0,0 c 10e-4,0.004 0.004,0.004 0.006,0.006 l 0,0 c -0.01,-0.004 -0.018,-0.009 -0.026,-0.015" />
                </g>
              </g>
            </g>
          </g>
        </g>
        <g
           id="g2152"
           transform="matrix(1.25,0,0,-1.25,-916.09833,1539.4874)">
          <g
             clip-path="url(#clipPath2156)"
             id="g2154">
            <g
               id="g2160">
              <g
                 id="g2162">
                <g
                   clip-path="url(#clipPath2166)"
                   id="g2164">
                  <path
                     id="path2176"
                     style="fill:url(#linearGradient2170);stroke:none"
                     d="m 991.903,814.893 c -4.828,-0.301 -11.312,-2.175 -14.665,-5.51 l 0,0 c 0.007,0.006 0.016,0.01 0.025,0.015 l 0,0 c 1.224,1.094 4.586,3.017 9.736,3.69 l 0,0 c 7.141,0.86 18.423,-2.508 21.806,-14.435 l 0,0 c 3.35,0.56 7.119,0.892 10.525,0.831 l 0,0 c -4.288,9.503 -14.312,15.477 -25.38,15.477 l 0,0 c -0.679,0 -1.362,-0.022 -2.047,-0.068" />
                </g>
              </g>
            </g>
          </g>
        </g>
        <g
           id="g2178"
           transform="matrix(1.25,0,0,-1.25,-916.09833,1539.4874)">
          <g
             clip-path="url(#clipPath2182)"
             id="g2180">
            <g
               id="g2186">
              <g
                 id="g2188">
                <g
                   clip-path="url(#clipPath2192)"
                   id="g2190">
                  <path
                     id="path2202"
                     style="fill:url(#linearGradient2196);stroke:none"
                     d="m 977.049,809.206 c 0.004,10e-4 0.009,0.003 0.015,0.004 l 0,0 c 0.002,0.002 0.007,0.005 0.007,0.008 l 0,0 c -0.005,-0.003 -0.014,-0.008 -0.022,-0.012" />
                </g>
              </g>
            </g>
          </g>
        </g>
        <g
           id="g2204"
           transform="matrix(1.25,0,0,-1.25,-916.09833,1539.4874)">
          <g
             clip-path="url(#clipPath2208)"
             id="g2206">
            <g
               id="g2212">
              <g
                 id="g2214">
                <g
                   clip-path="url(#clipPath2218)"
                   id="g2216">
                  <path
                     id="path2228"
                     style="fill:url(#linearGradient2222);stroke:none"
                     d="m 977.263,809.398 c -0.004,-0.003 -0.009,-0.006 -0.014,-0.012 l 0,0 c 9.551,4.976 19.848,-2.589 18.392,-14.331 l 0,0 c 3.501,1.315 7.118,2.395 10.804,3.157 l 0,0 c -1.421,8.527 -9.538,14.326 -18.367,14.326 l 0,0 c -3.622,0 -7.365,-0.977 -10.815,-3.14" />
                </g>
              </g>
            </g>
          </g>
        </g>
        <g
           id="g2230"
           transform="matrix(1.25,0,0,-1.25,-916.09833,1539.4874)">
          <g
             clip-path="url(#clipPath2234)"
             id="g2232">
            <g
               id="g2238">
              <g
                 id="g2240">
                <g
                   clip-path="url(#clipPath2244)"
                   id="g2242">
                  <path
                     id="path2254"
                     style="fill:url(#linearGradient2248);stroke:none"
                     d="m 977.232,809.377 c -0.046,-0.044 -0.092,-0.09 -0.137,-0.136 l 0,0 c 0.046,0.047 0.098,0.095 0.153,0.144 l 0,0 0,10e-4 c -0.005,-0.003 -0.011,-0.006 -0.016,-0.009 m -0.161,-0.158 0,-0.001 10e-4,0 c 0.008,0.008 0.016,0.016 0.023,0.023 l 0,0 c -0.007,-0.007 -0.015,-0.015 -0.024,-0.022" />
                </g>
              </g>
            </g>
          </g>
        </g>
        <g
           id="g2256"
           transform="matrix(1.25,0,0,-1.25,-916.09833,1539.4874)">
          <g
             clip-path="url(#clipPath2260)"
             id="g2258">
            <g
               id="g2264">
              <g
                 id="g2266">
                <g
                   clip-path="url(#clipPath2270)"
                   id="g2268">
                  <path
                     id="path2280"
                     style="fill:url(#linearGradient2274);stroke:none"
                     d="m 977.071,809.219 c 0,-0.004 -0.005,-0.007 -0.007,-0.009 l 0,0 c 11.095,2.999 7.866,-10.81 -3.152,-24.013 l 0,0 0,-1.733 c 5.795,4.054 12.802,8.131 19.303,10.634 l 0,0 c 2.077,11.001 -4.423,16.452 -10.852,16.452 l 0,0 c -1.837,0 -3.667,-0.445 -5.292,-1.331" />
                </g>
              </g>
            </g>
          </g>
        </g>
        <g
           id="g2282"
           transform="matrix(1.25,0,0,-1.25,-916.09833,1539.4874)">
          <g
             clip-path="url(#clipPath2286)"
             id="g2284">
            <g
               id="g2290">
              <g
                 id="g2292">
                <g
                   clip-path="url(#clipPath2296)"
                   id="g2294">
                  <path
                     id="path2306"
                     style="fill:url(#linearGradient2300);stroke:none"
                     d="m 977.049,809.195 c 0.003,0.005 0.01,0.009 0.015,0.014 l 0,0 c -0.005,-0.005 -0.012,-0.009 -0.015,-0.014" />
                </g>
              </g>
            </g>
          </g>
        </g>
        <g
           id="g2308"
           transform="matrix(1.25,0,0,-1.25,-916.09833,1539.4874)">
          <g
             clip-path="url(#clipPath2312)"
             id="g2310">
            <g
               transform="translate(1102.9663,799.8932)"
               id="g2316">
              <path
                 id="path2318"
                 style="fill:#514e4f;fill-opacity:1;fill-rule:nonzero;stroke:none"
                 d="m 0,0 c -0.001,-0.062 -0.001,-8.381 -0.001,-8.381 l 2.758,0 0,8.54 C 2.757,0.656 2.711,1.147 2.614,1.471 2.413,2.404 1.54,3.206 0.544,3.476 -0.747,3.848 -3.17,3.685 -3.17,3.685 l 0,4.327 -2.744,0 0,-16.393 2.744,0 c 0,0 -10e-4,9.56 0,9.56 l 0.214,0.003 C -1.635,1.218 -0.821,1.19 -0.49,1.042 -0.095,0.84 -0.015,0.315 0,0.006 L 0,0 Z" />
            </g>
            <path
               id="path2320"
               style="fill:#514e4f;fill-opacity:1;fill-rule:nonzero;stroke:none"
               d="m 1155.969,791.508 2.698,0 0,16.408 -2.698,0 0,-16.408 z" />
            <g
               transform="translate(1138.8682,803.1696)"
               id="g2322">
              <path
                 id="path2324"
                 style="fill:#514e4f;fill-opacity:1;fill-rule:nonzero;stroke:none"
                 d="m 0,0 c 0,0 -0.016,-0.006 -0.007,-0.002 l -0.014,-0.007 c -1.397,-0.698 -1.661,-2.147 -1.736,-3.608 l -0.032,-0.516 c -0.048,-1.778 -0.084,-3.793 0.437,-5.534 0.303,-0.955 1.225,-1.707 2.299,-1.872 1.485,-0.258 5.257,-0.1 5.257,-0.1 l 0,2.378 c 0,0 -3.528,0.042 -3.53,0.042 -0.361,0.012 -0.701,0.023 -0.971,0.165 -0.596,0.283 -0.635,0.896 -0.681,1.607 -0.01,0.141 -0.02,0.301 -0.036,0.449 0.025,0.531 0.015,1.069 0.006,1.535 -0.016,0.948 -0.028,1.855 0.17,2.746 0.134,0.341 0.355,0.569 0.704,0.599 1.101,0.175 4.338,0.065 4.338,0.065 l 0,2.466 C 6.204,0.413 1.611,0.636 0,0" />
            </g>
            <path
               id="path2326"
               style="fill:#514e4f;fill-opacity:1;fill-rule:nonzero;stroke:none"
               d="m 1044.8,805.115 2.735,0 0,2.793 -2.735,0 0,-2.793 z" />
            <path
               id="path2328"
               style="fill:#514e4f;fill-opacity:1;fill-rule:nonzero;stroke:none"
               d="m 1044.8,791.509 2.735,0 0,12.104 -2.735,0 0,-12.104 z" />
            <path
               id="path2330"
               style="fill:#514e4f;fill-opacity:1;fill-rule:nonzero;stroke:none"
               d="m 1075.868,805.115 2.737,0 0,2.793 -2.737,0 0,-2.793 z" />
            <path
               id="path2332"
               style="fill:#514e4f;fill-opacity:1;fill-rule:nonzero;stroke:none"
               d="m 1075.868,791.499 2.737,0 0,12.12 -2.737,0 0,-12.12 z" />
            <path
               id="path2334"
               style="fill:#514e4f;fill-opacity:1;fill-rule:nonzero;stroke:none"
               d="m 1132.903,805.051 2.735,0 0,2.858 -2.735,0 0,-2.858 z" />
            <path
               id="path2336"
               style="fill:#514e4f;fill-opacity:1;fill-rule:nonzero;stroke:none"
               d="m 1132.903,791.513 2.735,0 0,12.101 -2.735,0 0,-12.101 z" />
            <g
               transform="translate(1123.019,800.0707)"
               id="g2338">
              <path
                 id="path2340"
                 style="fill:#514e4f;fill-opacity:1;fill-rule:nonzero;stroke:none"
                 d="m 0,0 c -0.001,-0.081 -0.001,-8.557 -0.001,-8.557 l 2.87,0 10e-4,8.713 c 0,0.191 0.046,0.404 0.128,0.583 0.116,0.251 0.413,0.371 0.649,0.393 0.64,0.06 0.825,0.077 1.489,-0.057 0.473,-0.141 0.473,-0.618 0.48,-1.158 l 0,-8.474 2.758,0 0,7.676 c 0.007,0.913 0.024,1.865 -0.307,2.741 0,0 -0.004,0.009 0,0 C 7.599,2.839 6.595,3.429 5.093,3.588 L 5.083,3.59 5.07,3.59 4.865,3.594 C 3.637,3.617 2.368,3.641 1.317,2.993 L 1.254,2.954 1.19,2.993 c -0.655,0.413 -1.434,0.51 -2.035,0.546 -0.058,0 -3.865,-0.004 -4.589,-0.004 l 0,-12.092 2.717,0 0,9.55 c 0,0 2.059,0.194 2.509,-0.271 0.157,-0.159 0.185,-0.395 0.207,-0.712 L 0,0 Z" />
            </g>
            <g
               transform="translate(1128.0959,803.6605)"
               id="g2342">
              <path
                 id="path2344"
                 style="fill:#514e4f;fill-opacity:1;fill-rule:nonzero;stroke:none"
                 d="M 0,0 0.006,0 0.013,0 0,0 Z" />
            </g>
            <g
               transform="translate(1106.9458,799.9899)"
               id="g2346">
              <path
                 id="path2348"
                 style="fill:#514e4f;fill-opacity:1;fill-rule:nonzero;stroke:none"
                 d="M 0,0 0,0 C 0,0.002 0,0 0,0" />
            </g>
            <g
               transform="translate(1110.449,800.9505)"
               id="g2350">
              <path
                 id="path2352"
                 style="fill:#514e4f;fill-opacity:1;fill-rule:nonzero;stroke:none"
                 d="m 0,0 0.257,0.129 c 0.73,0.32 1.351,0.229 2.002,0.073 L 2.445,0.108 C 2.533,0.018 2.623,-0.074 2.728,-0.248 2.882,-0.533 2.937,-1.194 2.911,-1.766 2.909,-1.805 2.919,-1.991 2.919,-1.991 l -3.264,0.002 c 0,0 -0.107,1.615 0.345,1.989 M 0.863,-6.977 0.547,-6.93 0.535,-6.925 c -0.957,0.132 -0.885,1.929 -0.879,2.431 l 0,0.117 5.989,0 c 0,0.575 0.066,3.112 -0.141,4.258 0,0 -0.016,0.151 -0.016,0.147 C 5.433,0.465 5.344,0.699 5.199,0.979 5.153,1.071 5.059,1.268 5.06,1.267 4.578,2.102 3.686,2.559 2.349,2.652 c 0,0 -0.535,0.04 -0.765,0.04 -1.054,0.002 -2.146,0.003 -3.077,-0.44 -1.291,-0.661 -1.537,-2.18 -1.604,-3.213 0,-0.007 0,0.001 0,0 0,0 -0.04,-1.183 -0.04,-1.182 -0.003,-1.695 -0.092,-3.609 0.473,-5.367 0.328,-1.07 1.411,-1.694 2.333,-1.841 1.786,-0.184 6.028,-0.07 6.028,-0.07 l 0,2.405 C 5.038,-7.018 2.148,-7.014 0.863,-6.977" />
            </g>
            <g
               transform="translate(1154.0477,802.2996)"
               id="g2354">
              <path
                 id="path2356"
                 style="fill:#514e4f;fill-opacity:1;fill-rule:nonzero;stroke:none"
                 d="m 0,0 c 0.007,-0.015 0.009,-0.017 0.009,-0.017 l 0,-10e-4 L 0.015,-0.026 0,0.001 0,0 Z" />
            </g>
            <g
               transform="translate(1154.0635,802.2711)"
               id="g2358">
              <path
                 id="path2360"
                 style="fill:#514e4f;fill-opacity:1;fill-rule:nonzero;stroke:none"
                 d="M 0,0 0,0 -0.001,0.002 0,0 Z" />
            </g>
            <g
               transform="translate(1154.0643,802.2711)"
               id="g2362">
              <path
                 id="path2364"
                 style="fill:#514e4f;fill-opacity:1;fill-rule:nonzero;stroke:none"
                 d="M 0,0 0.008,0.003 -0.001,0 0,0 Z" />
            </g>
            <g
               transform="translate(1151.8241,794.0678)"
               id="g2366">
              <path
                 id="path2368"
                 style="fill:#514e4f;fill-opacity:1;fill-rule:nonzero;stroke:none"
                 d="M 0,0 C 0,0 -2.146,-0.021 -2.524,0.014 -2.686,0.048 -2.845,0.261 -2.95,0.565 -2.953,0.595 -2.999,0.713 -3.01,0.957 -3.045,1.704 -3.008,2.129 -2.58,2.326 -1.961,2.589 0,2.945 0,2.945 L 0,0 Z m 2.694,5.665 0,0 C 2.689,6.512 2.679,7.473 2.229,8.221 1.823,9.043 0.95,9.565 0.008,9.55 l -0.016,10e-4 -5.389,-0.021 0,-2.493 c 0,0 4.069,0.03 4.143,0.031 0.389,0.01 0.726,0.015 0.963,-0.192 0.29,-0.263 0.287,-0.648 0.283,-1.095 l 0,-0.244 c 0,0 -3.083,-0.797 -3.331,-0.868 C -3.98,4.482 -4.708,4.27 -5.194,3.579 -6.018,2.2 -5.868,0.263 -5.297,-0.934 c 0,0 0.005,-0.01 0,0 0.715,-1.43 2.268,-1.626 3.537,-1.626 l 4.454,0 c 0,0 0.002,7.929 0,8.225" />
            </g>
            <g
               transform="translate(1052.8899,794.0189)"
               id="g2370">
              <path
                 id="path2372"
                 style="fill:#514e4f;fill-opacity:1;fill-rule:nonzero;stroke:none"
                 d="m 0,0 c -0.357,0.096 -0.655,0.263 -0.636,0.759 0.017,0.511 0,0 0,0 l -0.01,6.258 2.46,0 0,2.586 -2.46,0 0,4.295 -2.679,0 c 0,0 -0.014,-13.135 -0.014,-13.586 0,-0.409 0.232,-0.949 0.234,-0.952 0.897,-2.073 3.443,-1.933 4.669,-1.865 l 0.263,0.014 0,2.427 c 0,0 -1.47,-0.032 -1.827,0.064" />
            </g>
            <g
               transform="translate(1071.2561,803.6183)"
               id="g2374">
              <path
                 id="path2376"
                 style="fill:#514e4f;fill-opacity:1;fill-rule:nonzero;stroke:none"
                 d="m 0,0 0,-9.556 c 0,0 -1.946,-0.044 -2.649,0.052 l -0.006,10e-4 -0.006,10e-4 c -0.369,0 -0.513,0.518 -0.513,0.873 -0.002,0.029 0,-0.035 0,0 L -3.175,0 l -2.746,0 0,-8.714 c 0.02,-0.424 0.074,-1.049 0.331,-1.592 0.528,-1.197 1.621,-1.802 3.248,-1.801 0.07,-0.001 4.29,-0.001 5.053,-0.001 L 2.711,0 0,0 Z" />
            </g>
            <g
               transform="translate(1063.0536,797.8249)"
               id="g2378">
              <path
                 id="path2380"
                 style="fill:#514e4f;fill-opacity:1;fill-rule:nonzero;stroke:none"
                 d="M 0,0 C -0.981,0.481 -1.839,0.766 -2.758,1.022 -3.226,1.153 -3.756,1.3 -4.256,1.483 l -0.009,0.003 -0.009,0.005 c -0.433,0.184 -0.373,0.804 -0.294,1.388 0.022,0.146 0.159,0.426 0.526,0.429 1.323,0.02 4.635,-0.002 4.635,-0.002 l -0.005,2.488 -4.085,0 c -1.259,-0.002 -2.692,-0.016 -3.42,-1.345 0,0 -0.004,-0.01 0,0 -0.359,-0.83 -0.488,-1.944 -0.352,-3.109 0.253,-1.867 1.926,-2.303 3.273,-2.653 0.372,-0.098 1.138,-0.35 1.466,-0.457 l 0.15,-0.05 c 0.267,-0.083 0.528,-0.175 0.72,-0.376 0.23,-0.284 0.198,-0.886 0.041,-1.282 -0.063,-0.169 -0.225,-0.379 -0.56,-0.407 l -2.786,0.018 -2.395,0.012 0,-2.455 c 0,0 4.582,-0.053 6.153,0.074 1.06,0.15 2.009,1.064 2.258,2.173 C 1.376,-2.617 1.268,-0.789 0,0" />
            </g>
            <g
               transform="translate(1164.6831,803.6364)"
               id="g2382">
              <path
                 id="path2384"
                 style="fill:#514e4f;fill-opacity:1;fill-rule:nonzero;stroke:none"
                 d="M 0,0 0.004,-0.001 C 0.007,0 0.01,0 0.012,0 L 0,0 Z" />
            </g>
            <g
               transform="translate(1167.2122,797.8076)"
               id="g2386">
              <path
                 id="path2388"
                 style="fill:#514e4f;fill-opacity:1;fill-rule:nonzero;stroke:none"
                 d="M 0,0 0.011,-0.01 0.022,-0.016 0,0 Z" />
            </g>
            <g
               transform="translate(1167.2227,797.7979)"
               id="g2390">
              <path
                 id="path2392"
                 style="fill:#514e4f;fill-opacity:1;fill-rule:nonzero;stroke:none"
                 d="m 0,0 c -0.049,0.028 -0.227,0.129 -0.226,0.129 -0.724,0.407 -1.353,0.576 -2.081,0.77 l -0.455,0.125 c -0.466,0.131 -0.996,0.279 -1.496,0.46 l -0.01,0.003 -0.01,0.005 c -0.431,0.247 -0.421,0.561 -0.402,1.217 0,0 0.077,0.275 0.08,0.284 0.072,0.192 0.275,0.316 0.55,0.334 0.379,0.004 1.157,-0.018 1.97,0.077 l 2.67,0 -0.005,2.396 -3.121,0 C -2.85,5.844 -3.442,5.848 -3.769,5.844 -5.046,5.833 -6.192,5.783 -6.914,4.462 c 0,0 -0.009,-0.017 -0.004,-0.007 0,0 -0.006,-0.017 -0.008,-0.017 -0.36,-0.831 -0.482,-1.931 -0.346,-3.095 0.252,-1.869 1.928,-2.304 3.273,-2.655 0.458,-0.119 0.894,-0.232 1.269,-0.387 0.122,-0.049 0.236,-0.083 0.347,-0.12 0.266,-0.082 0.517,-0.161 0.714,-0.367 0.251,-0.288 0.187,-0.936 0.047,-1.289 -0.034,-0.092 -0.175,-0.398 -0.58,-0.409 0,0 -1.639,0.039 -1.639,0.02 l -3.523,0 0,-2.445 3.888,0 c 0.902,0.009 1.75,0.014 2.28,0.075 1.051,0.151 1.994,1.063 2.243,2.171 0.37,1.646 0.034,3.084 -0.92,3.946 L 0,0 Z" />
            </g>
            <g
               transform="translate(1088.8413,804.4503)"
               id="g2394">
              <path
                 id="path2396"
                 style="fill:#514e4f;fill-opacity:1;fill-rule:nonzero;stroke:none"
                 d="m 0,0 0,0 c 0.194,0.54 0.744,0.833 1.372,0.85 l 5.375,0.01 0,2.601 c 0,0 -2.795,-0.006 -3.247,-10e-4 -2.381,0.027 -5.08,0.059 -6.171,-2.537 -0.577,-1.619 -0.477,-3.432 -0.57,-5.201 l 0,-0.383 c 0,0 0.011,-1.115 0.011,-1.118 0.063,-1.55 0.132,-3.166 0.614,-4.546 0.653,-1.796 2.496,-2.616 4.031,-2.634 0.059,-0.001 5.328,0.025 5.328,0.025 l 0.002,2.514 -4.819,0.006 c -0.512,0.029 -0.929,0.121 -1.27,0.355 -0.433,0.277 -0.61,0.707 -0.74,1.269 l -0.002,0.006 0,0.007 C -0.277,-7.107 -0.402,-1.234 0,0" />
            </g>
            <g
               transform="translate(1038.9049,807.9211)"
               id="g2398">
              <path
                 id="path2400"
                 style="fill:#514e4f;fill-opacity:1;fill-rule:nonzero;stroke:none"
                 d="m 0,0 -2.765,-9.7 -2.981,9.7 -3.835,0 0,-16.412 2.626,0 0,12.06 2.916,-9.533 2.639,0 2.744,9.478 0,-12.005 2.639,0 L 3.983,0 0,0 Z" />
            </g>
          </g>
        </g>
      </g>
    </g>
  </g>
</svg>
