<?xml version="1.0" encoding="UTF-8" standalone="no"?>
<svg
   xmlns:dc="http://purl.org/dc/elements/1.1/"
   xmlns:cc="http://creativecommons.org/ns#"
   xmlns:rdf="http://www.w3.org/1999/02/22-rdf-syntax-ns#"
   xmlns:svg="http://www.w3.org/2000/svg"
   xmlns="http://www.w3.org/2000/svg"
   width="384"
   height="96"
   id="svg9779"
   version="1.1"
   viewBox="0 0 360 90">
  <path
     style="fill:#000000;fill-opacity:1;fill-rule:nonzero;stroke:none;stroke-width:1"
     d="m 280.95313,21.730467 c 0,0 2e-5,32.320313 0,32.320313 0,1.59691 0.83455,2.529765 1.69532,3.117188 0.92269,0.619552 2.27679,0.929706 4.10156,0.929687 1.15435,0 2.67967,-0.382811 2.67969,-0.382811 0,0 -2e-5,-2.898421 0,-2.898439 -0.45784,0.0284 -0.86317,0.05469 -1.3125,0.05469 -2.71644,0 -3.11723,-1.061235 -3.11719,-2.242188 0,0 -5e-5,-30.898421 0,-30.898438 z m -85.47656,0.328125 c -3.05025,0 -5.80781,0.956777 -7.76562,2.679687 -1.90119,1.680578 -2.95314,4.00036 -2.95314,6.507813 6e-5,2.761623 1.11761,4.91946 3.44531,6.617187 2.05295,1.499121 4.76833,2.467045 7.38283,3.390625 4.54493,1.616634 8.80468,3.092058 8.80468,7.21875 0,1.835244 -0.62431,3.408634 -1.80468,4.484376 -1.29787,1.182983 -3.1651,1.75 -5.63283,1.75 -4.32532,0 -7.47424,-2.394875 -9.24217,-7.054687 -2e-5,0 -3.88283,1.039062 -3.88283,1.039062 0.83629,1.88979 2.25882,4.617025 4.32032,6.453125 2.2603,2.027918 5.06604,3.007813 8.58594,3.007813 4.16829,0 7.33249,-1.0752 9.40624,-3.226563 2.14986,-2.239597 2.625,-5.105747 2.625,-7.109375 0,-2.871137 -1.21361,-5.088178 -3.66406,-6.835937 -2.13932,-1.534541 -4.90764,-2.523588 -7.60156,-3.445314 -4.38939,-1.500975 -8.57784,-2.929429 -8.53125,-6.617187 0.0155,-1.719568 0.61183,-3.05816 1.69531,-3.992188 1.10423,-0.94885 2.67794,-1.421875 4.70314,-1.421875 2.12716,1.8e-5 4.02391,0.594563 5.46875,1.75 1.3287,1.052328 2.29556,2.614063 2.73437,4.375 1e-5,0 3.77343,-0.492186 3.77343,-0.492186 -1.65547,-5.643839 -5.7015,-9.078126 -11.86718,-9.078126 z M 22.5,22.550779 v 35.109376 h 4.046875 V 25.558592 l 0.109375,0.109375 9.625,31.992188 h 3.117188 l 9.679688,-31.992188 0.05469,-0.109375 v 32.101563 h 4.046876 V 22.550779 h -6.726567 l -8.585937,28.21875 v 0.109376 l -0.05469,-0.109376 -8.585939,-28.21875 z m 192.66407,0.710938 v 8.421875 h -3.88282 v 3.226562 c 0,0 3.88282,1.8e-5 3.88282,0 0,0 0,18.046001 0,19.140626 0,1.59691 0.7269,2.529765 1.58594,3.117188 0.92444,0.619552 2.27481,0.929706 4.10155,0.929687 1.15588,0 2.73434,-0.382811 2.73439,-0.382811 0,0 -5e-5,-2.898421 0,-2.898439 -0.44932,0.0284 -0.91961,0.05469 -1.36719,0.05469 -2.71994,0 -3.00785,-1.061235 -3.00781,-2.242188 0,0 -4e-5,-17.718732 0,-17.718751 h 4.375 v -3.226558 h -4.375 V 23.261717 Z M 69.585939,31.191404 c -3.407687,0 -6.295834,1.373015 -8.3125,3.937501 -1.871608,2.393317 -2.898438,5.774283 -2.898438,9.515625 1.7e-5,3.74479 1.026813,7.119595 2.898438,9.515625 2.016683,2.571275 4.904813,3.9375 8.3125,3.9375 3.421688,0 6.301103,-1.366225 8.312501,-3.9375 1.871852,-2.39603 2.898437,-5.770835 2.898437,-9.515625 -1.7e-5,-3.741342 -1.026602,-7.122291 -2.898437,-9.515625 -2.011398,-2.564485 -4.890813,-3.937501 -8.312501,-3.937501 z m 233.460941,0.05469 c -1.7297,0 -3.33812,0.31794 -4.70312,0.929687 -1.33592,0.60214 -2.52262,1.508675 -3.44531,2.679689 -1.83533,2.298256 -2.89844,5.710249 -2.89844,9.84375 -3e-5,4.600435 1.32191,8.11069 3.71875,10.445311 2.52827,2.467851 5.74982,2.953125 7.98437,2.953125 5.80647,0 8.65507,-3.141651 9.84376,-6.015624 -6e-5,0 -3.22657,-1.585938 -3.22657,-1.585938 -0.78463,1.749807 -2.58715,4.429688 -6.61719,4.429688 -2.30347,0 -4.18753,-0.94304 -5.52343,-2.679687 -1.29082,-1.68056 -2.01644,-4.006679 -2.02344,-6.78125 2e-5,1.7e-5 17.71875,0 17.71875,0 4e-5,1.7e-5 0,-2.460939 0,-2.460939 4e-5,-4.250977 -1.13204,-7.421067 -3.22656,-9.351562 -1.7833,-1.639855 -4.28509,-2.40625 -7.60157,-2.40625 z m -192.00782,0.05469 c -4.56569,0 -11.04687,3.072109 -11.04687,13.398439 0,10.026432 6.461,13.398438 10.82812,13.398438 2.54886,1.8e-5 4.865,-1.412093 6.45313,-3.445313 -2e-5,1.7e-5 0.21876,-0.109375 0.21876,-0.109375 1e-5,1.8e-5 0,4.921876 0,4.921876 1e-5,3.45198 -2.9877,5.578125 -6.1797,5.578125 -3.10336,1.7e-5 -5.85069,-0.592498 -8.09375,-1.640625 -3e-5,0 0,3.5 0,3.5 1.88888,0.80962 4.96277,1.3125 7.60156,1.3125 7.18373,1.7e-5 10.60939,-3.953723 10.60939,-9.679689 1e-5,0 0,-26.742187 0,-26.742187 h -3.00781 c 0,0 -0.87501,2.734375 -0.87501,2.734375 -1.48469,-1.93452 -3.42848,-3.226564 -6.50782,-3.226564 z m 26.14064,0 c -5.74766,0 -8.46893,3.442986 -9.62501,5.578126 0,0 3.22656,1.695313 3.22656,1.695313 0.4528,-1.22003 2.08295,-4.046875 6.45313,-4.046875 3.44592,0 5.19532,1.52082 5.19532,4.539062 0,0 0,0.929688 0,0.929688 2e-5,0 0.0282,0.28259 -0.0547,0.382812 -0.12799,0.161578 -0.49089,0.29372 -1.3672,0.382813 -4.82472,0.5383 -8.03162,1.3307 -10.39061,2.84375 -2.5609,1.645998 -4.15626,3.950521 -4.15626,7.109375 0,2.243938 1.08653,4.159121 2.51563,5.523437 1.32889,1.256449 3.1395,1.910109 5.14063,1.96875 4.25969,0.136641 7.06365,-1.636266 8.42187,-3.718749 0.10539,1.43087 0.61819,2.248453 1.74999,2.84375 1.06296,0.567683 2.80634,0.454772 3.55469,0.273437 0,1.7e-5 0,-2.734375 0,-2.734375 -0.90212,-0.04505 -1.47655,-0.474022 -1.47655,-1.585938 -6e-5,0 0,-12.523437 0,-12.523437 -6e-5,0 0,-1.640625 0,-1.640625 -3e-5,-2.584453 -1.01435,-4.704368 -2.95313,-6.070313 -1.59857,-1.134386 -3.8323,-1.750001 -6.23437,-1.750001 z m 27.83593,0 c -2.63379,1.9e-5 -5.32918,1.36437 -7.60156,3.937501 V 31.79298 h -4.04688 v 25.921868 h 4.04688 c 4e-5,0 0,-19.25 0,-19.25 1.37707,-1.471454 4.46359,-3.9375 7.27343,-3.9375 2.81687,0 4.04688,1.381695 4.04688,4.484374 -4e-5,0 0,18.703126 0,18.703126 h 4.04688 c 0,0 0,-18.8125 0,-18.8125 0,-5.600649 -3.98301,-7.601564 -7.76563,-7.601564 z m 73.22657,0 c -5.74443,0 -8.4652,3.442986 -9.62501,5.578126 6e-5,0 3.22657,1.695313 3.22657,1.695313 0.45453,-1.22003 2.08273,-4.046875 6.45313,-4.046875 3.44552,0 5.19531,1.52082 5.19531,4.539062 -2e-5,0 0,0.929688 0,0.929688 -4e-5,0 -0.0282,0.28259 -0.10938,0.382812 -0.12626,0.161578 -0.43289,0.29372 -1.3125,0.382813 -4.82478,0.537337 -8.03185,1.3307 -10.39062,2.84375 -2.55939,1.645998 -4.15625,3.950521 -4.15625,7.109375 3e-5,2.243938 1.08456,4.158245 2.51561,5.523437 1.32895,1.256449 3.14126,1.910109 5.14063,1.96875 4.25624,0.136641 7.06366,-1.636266 8.42188,-3.718749 0.10713,1.43024 0.61621,2.248453 1.75,2.84375 1.06091,0.567683 2.80481,0.454772 3.55469,0.273437 -2e-5,1.7e-5 0,-2.734375 0,-2.734375 -0.90039,-0.04505 -1.47656,-0.474022 -1.47656,-1.585938 -2e-5,0 0,-12.523437 0,-12.523437 -2e-5,0 0,-1.640625 0,-1.640625 -4e-5,-2.584453 -1.06707,-4.704368 -3.00781,-6.070313 -1.60017,-1.134386 -3.77935,-1.750001 -6.17969,-1.750001 z m 27.83593,0 c -2.64074,1.9e-5 -5.32939,1.36437 -7.60156,3.937501 V 31.79298 h -4.04687 v 25.921868 h 4.04687 c -2e-5,0 0,-19.25 0,-19.25 1.37899,-1.47231 4.46009,-3.9375 7.27343,-3.9375 2.8116,0 4.04689,1.381695 4.04689,4.484374 0,0 0,18.703126 0,18.703126 h 4.04687 c 0,0 0,-18.8125 0,-18.8125 0,-5.600649 -3.98301,-7.601564 -7.76563,-7.601564 z M 98.46094,31.410154 c -4.105938,0 -6.539313,1.591889 -8.640626,5.359376 V 36.496092 31.792968 H 85.77344 v 25.867187 h 4.046874 c 0,1.8e-5 0,-14.65625 0,-14.65625 0.999041,-5.324252 3.817854,-7.820313 8.640626,-7.820313 0,0 0,-3.773438 0,-3.773438 z m 218.14845,0.328125 9.02343,25.703126 c -2e-5,0 0,0.21875 0,0.21875 -0.53923,2.463389 -2.09869,5.50431 -3.5,6.453125 -1.23751,0.839878 -2.57775,0.929688 -3.60937,0.929688 -0.4979,0 -1.52644,-0.168123 -1.96875,-0.273438 2e-5,0 0,3.117189 0,3.117189 0.5598,0.137374 1.85193,0.382812 2.67969,0.382812 1.92846,1.8e-5 3.55491,-0.482772 4.92187,-1.476563 1.63648,-1.189668 3.44946,-4.2903 4.32031,-6.945313 -3e-5,0 9.02344,-28.109376 9.02344,-28.109376 h -3.9375 l -5.90625,19.906251 -0.0547,0.437499 -0.10937,-0.437499 -6.94531,-19.90625 z M 69.585939,34.417968 c 4.356625,0 6.945313,3.82396 6.945313,10.226562 -3.5e-5,6.404335 -2.588688,10.226563 -6.945313,10.226563 -4.349626,0 -6.945313,-3.822228 -6.945313,-10.226563 -3.4e-5,-6.402602 2.595687,-10.226562 6.945313,-10.226562 z m 41.726561,0.05469 c 2.28314,0 4.2875,0.98651 6.1797,3.335938 1e-5,0 0,12.359375 0,12.359375 -1.04737,2.981091 -4.04711,4.703125 -6.1797,4.703125 -4.17328,0 -7.05469,-2.598628 -7.05469,-10.390624 5e-5,-6.551966 2.58586,-10.007814 7.05469,-10.007814 z m 191.84376,0 c 4.63643,0 6.70927,2.451733 6.72656,7.765625 6e-5,0 -13.61719,0 -13.61719,0 0.35263,-5.309586 2.57732,-7.765625 6.89063,-7.765625 z m -160.61719,9.132813 c 3e-5,0 0,6.5625 0,6.5625 -0.18656,2.265655 -4.4205,5.007783 -7.875,4.812501 -1.90594,-0.104529 -3.74237,-1.63926 -3.9375,-4.15625 -0.31632,-4.206074 2.84418,-5.952381 9.89843,-6.726563 0.49071,-0.04492 1.44046,-0.219135 1.91407,-0.492188 z m 101.0625,0 c 1e-5,0 0,6.5625 0,6.5625 -0.18657,2.264658 -4.4205,5.007783 -7.875,4.812501 -1.90273,-0.105403 -3.74762,-1.640135 -3.9375,-4.15625 -0.32131,-4.206074 2.84265,-5.952381 9.89844,-6.726563 0.48732,-0.04492 1.44397,-0.219135 1.91406,-0.492188 z"
     id="path813" />
</svg>
