<?xml version="1.0" encoding="UTF-8" standalone="no"?>
<!-- Created with Inkscape (http://www.inkscape.org/) by Marsupilami -->
<svg
   xmlns:svg="http://www.w3.org/2000/svg"
   xmlns="http://www.w3.org/2000/svg"
   version="1.0"
   width="667"
   height="768"
   viewBox="0 0 86.126251 99.160004"
   id="svg2678">
  <defs
     id="defs2680" />
  <g
     transform="translate(-331.93688,-482.78218)"
     id="layer1">
    <path
       d="M 0,79.5 L 0,95.53125 L 3.46875,95.53125 L 3.46875,85.40625 L 11.15625,95.53125 L 14.125,95.53125 L 14.125,79.5 L 10.6875,79.5 L 10.6875,89.40625 L 3.21875,79.5 L 0,79.5 z M 43.71875,79.5 L 37.0625,95.53125 L 40.625,95.53125 L 42.09375,91.96875 L 48.40625,91.96875 L 49.875,95.53125 L 53.5,95.53125 L 46.875,79.5 L 43.71875,79.5 z M 29.90625,80.25 L 29.90625,83.34375 L 28.46875,83.34375 L 28.46875,86.3125 L 29.90625,86.3125 L 29.90625,92.0625 C 29.90625,94.88 31.357498,95.718747 33.46875,95.71875 C 34.6275,95.71875 35.46125,95.463747 36.1875,95.03125 L 36.1875,92.25 C 35.68625,92.52625 35.105002,92.6875 34.46875,92.6875 C 33.6975,92.6875 33.374998,92.295003 33.375,91.5 L 33.375,86.3125 L 36.21875,86.3125 L 36.21875,83.34375 L 33.375,83.34375 L 33.375,80.25 L 29.90625,80.25 z M 21.84375,83.125 C 18.29875,83.125 15.8125,85.993751 15.8125,89.46875 L 15.8125,89.5 C 15.8125,93.22625 18.52875,95.812498 22.1875,95.8125 C 24.39,95.8125 26.0225,94.940004 27.15625,93.53125 L 25.1875,91.78125 C 24.2325,92.66875 23.3775,93.031252 22.21875,93.03125 C 20.6725,93.03125 19.593751,92.223748 19.25,90.65625 L 27.71875,90.65625 C 27.745,90.33875 27.75,89.991251 27.75,89.71875 C 27.75,86.26625 25.90875,83.125002 21.84375,83.125 z M 61.625,83.125 C 59.83,83.125 58.6525,83.958746 57.8125,85.09375 L 57.8125,83.34375 L 54.375,83.34375 L 54.375,99.15625 L 57.8125,99.15625 L 57.8125,93.9375 C 58.63,94.915 59.78625,95.749998 61.625,95.75 C 64.51125,95.75 67.156249,93.536251 67.15625,89.46875 L 67.15625,89.40625 C 67.15625,85.34 64.46625,83.125002 61.625,83.125 z M 75.8125,83.125 C 74.01875,83.125 72.871249,83.958746 72.03125,85.09375 L 72.03125,83.34375 L 68.5625,83.34375 L 68.5625,99.15625 L 72.03125,99.15625 L 72.03125,93.9375 C 72.8475,94.915 73.971252,95.749998 75.8125,95.75 C 78.6975,95.75 81.34375,93.536251 81.34375,89.46875 L 81.34375,89.40625 C 81.34375,85.34 78.652502,83.125002 75.8125,83.125 z M 81,83.34375 L 81,83.71875 L 81.75,83.71875 L 81.75,86.0625 L 82.15625,86.0625 L 82.15625,83.71875 L 82.9375,83.71875 L 82.9375,83.34375 L 81,83.34375 z M 83.4375,83.34375 L 83.4375,86.0625 L 83.84375,86.0625 L 83.84375,83.8125 L 84.65625,86.0625 L 84.90625,86.0625 L 85.71875,83.8125 L 85.71875,86.0625 L 86.125,86.0625 L 86.125,83.34375 L 85.5,83.34375 L 84.78125,85.40625 L 84.0625,83.34375 L 83.4375,83.34375 z M 45.25,83.71875 L 47.34375,88.875 L 43.125,88.875 L 45.25,83.71875 z M 21.84375,85.90625 C 23.29625,85.90625 24.2025,86.921251 24.40625,88.46875 L 19.1875,88.46875 C 19.46,86.90375 20.41,85.906248 21.84375,85.90625 z M 60.71875,86.0625 C 62.33,86.0625 63.687501,87.384999 63.6875,89.40625 L 63.6875,89.46875 C 63.6875,91.51375 62.329999,92.812497 60.71875,92.8125 C 59.1075,92.8125 57.781248,91.491251 57.78125,89.46875 L 57.78125,89.40625 C 57.78125,87.385 59.107499,86.062502 60.71875,86.0625 z M 74.9375,86.0625 C 76.55125,86.0625 77.906247,87.384999 77.90625,89.40625 L 77.90625,89.46875 C 77.90625,91.51375 76.551249,92.812497 74.9375,92.8125 C 73.3275,92.8125 71.968748,91.491251 71.96875,89.46875 L 71.96875,89.40625 C 71.96875,87.385 73.327499,86.062502 74.9375,86.0625 z "
       transform="translate(331.93688,482.78218)"
       style="fill:#000000;fill-opacity:1;fill-rule:nonzero;stroke:none"
       id="path25478" />
    <path
       d="M 331.93688,482.78218 L 331.93688,550.28093 L 363.43688,550.28093 L 363.43688,509.78093 L 381.43688,509.78093 L 381.43688,550.28093 L 412.93563,550.28093 L 412.93563,482.78218 L 331.93688,482.78218 z "
       style="fill:#0077c0;fill-opacity:1;fill-rule:nonzero;stroke:none"
       id="path25522" />
  </g>
</svg>
