<?xml version="1.0" encoding="UTF-8" standalone="no"?>
<!-- Created with Inkscape (http://www.inkscape.org/) -->

<svg
   xmlns:dc="http://purl.org/dc/elements/1.1/"
   xmlns:cc="http://creativecommons.org/ns#"
   xmlns:rdf="http://www.w3.org/1999/02/22-rdf-syntax-ns#"
   xmlns:svg="http://www.w3.org/2000/svg"
   xmlns="http://www.w3.org/2000/svg"
   xmlns:sodipodi="http://sodipodi.sourceforge.net/DTD/sodipodi-0.dtd"
   xmlns:inkscape="http://www.inkscape.org/namespaces/inkscape"
   width="251.9996"
   height="58.84343"
   viewBox="0 0 66.674895 15.56899"
   version="1.1"
   id="svg947"
   inkscape:version="0.92.0 r15299"
   sodipodi:docname="renishaw.svg">
  <defs
     id="defs941">
    <clipPath
       id="clipPath612"
       clipPathUnits="userSpaceOnUse">
      <path
         inkscape:connector-curvature="0"
         id="path610"
         d="m 144.708,533.593 h 310.394 v 71.93 H 144.708 Z" />
    </clipPath>
  </defs>
  <sodipodi:namedview
     id="base"
     pagecolor="#ffffff"
     bordercolor="#666666"
     borderopacity="1.0"
     inkscape:pageopacity="0.0"
     inkscape:pageshadow="2"
     inkscape:zoom="2.1828486"
     inkscape:cx="205.46547"
     inkscape:cy="-17.315991"
     inkscape:document-units="mm"
     inkscape:current-layer="layer1"
     showgrid="false"
     fit-margin-top="0"
     fit-margin-left="0"
     fit-margin-right="0"
     fit-margin-bottom="0"
     units="px"
     inkscape:window-width="1280"
     inkscape:window-height="744"
     inkscape:window-x="-4"
     inkscape:window-y="-4"
     inkscape:window-maximized="1" />
  <metadata
     id="metadata944">
    <rdf:RDF>
      <cc:Work
         rdf:about="">
        <dc:format>image/svg+xml</dc:format>
        <dc:type
           rdf:resource="http://purl.org/dc/dcmitype/StillImage" />
        <dc:title></dc:title>
      </cc:Work>
    </rdf:RDF>
  </metadata>
  <g
     inkscape:label="Layer 1"
     inkscape:groupmode="layer"
     id="layer1"
     transform="translate(77.04131,-66.991231)">
    <g
       id="g1153"
       transform="matrix(0.60770012,0,0,0.60837475,-29.958714,32.068084)"
       style="stroke-width:1.6446358">
      <path
         d="M -77.029913,57.981625 V 70.63788 h 4.200878 V 59.732461 h 0.465666 c 1.077736,0 1.982259,0.815975 1.982259,2.274006 0,1.487311 -0.581731,2.420055 -2.128661,2.420055 h -0.05786 l 2.916061,6.211358 h 4.721578 l -3.643842,-5.599288 c 1.632303,-0.407812 2.39007,-1.5748 2.39007,-3.20675 0,-2.390423 -2.011539,-3.850217 -4.226631,-3.850217 z m 20.843169,7.290858 v -1.865841 h -3.963105 v -2.418645 c 0,-0.700616 0.203905,-1.137003 0.758119,-1.137003 h 3.672769 v -1.869369 h -5.772502 c -1.516592,0 -2.8575,0.994128 -2.8575,2.713567 v 7.43338 c 0,1.545167 0.992364,2.509308 2.333272,2.509308 h 6.5024 v -1.867605 h -3.587045 c -0.699205,0 -1.049513,-0.320322 -1.049513,-0.875242 v -2.62255 z m 12.15778,3.381022 V 57.976686 h -2.09938 v 6.333067 h -0.05962 l -3.030714,-4.80942 c -0.641702,-1.01988 -1.253772,-1.63195 -2.507544,-1.63195 -1.982611,0 -2.187928,1.341261 -2.187928,2.361142 v 10.406591 h 2.100792 V 62.5314 h 0.0575 l 4.431241,7.171972 c 0.437445,0.729192 0.875242,1.04775 1.74872,1.04775 1.312686,0 1.54693,-0.9906 1.54693,-2.097617 m 13.4874,-8.804274 h 2.885722 v -1.867606 h -4.022725 c -2.505075,0 -4.37268,1.402292 -4.37268,4.054475 0,2.390422 1.51518,3.112558 3.030008,3.529189 l 1.112661,0.277636 c 0.3556,0.08502 0.68827,0.173919 0.972608,0.286103 0.569384,0.224013 0.948973,0.541513 0.948973,1.124302 0,1.430161 -0.758473,1.516945 -1.923345,1.516945 H -35.4674 v 1.867605 h 4.547658 c 2.594328,0 4.575528,-1.489427 4.575528,-4.434064 0,-2.565047 -1.414639,-3.307997 -2.828925,-3.700286 L -30.211717,62.252 c -0.329847,-0.07832 -0.638175,-0.156986 -0.903816,-0.259645 -0.52952,-0.205316 -0.881945,-0.509411 -0.881945,-1.092905 0,-0.9906 0.814564,-1.050219 1.455914,-1.050219"
         style="fill:#f89728;fill-opacity:1;fill-rule:nonzero;stroke:none;stroke-width:0.58019096"
         id="path616"
         inkscape:connector-curvature="0" />
      <path
         inkscape:connector-curvature="0"
         id="path618"
         style="fill:#f89728;fill-opacity:1;fill-rule:nonzero;stroke:none;stroke-width:0.58019096"
         d="m -41.73231,70.638057 h 4.201583 v -12.65555 h -4.201583 z" />
      <path
         d="m 2.1224116,57.981625 h -4.227336 l 2.94534158,10.468328 c 0.40851662,1.457325 1.16522502,2.302933 2.76930552,2.302933 1.6323027,0 2.3904221,-1.138767 2.7689527,-2.536825 l 1.1948583,-4.460522 h 0.058914 l 1.1948583,4.81083 c 0.3785305,1.4859 1.283053,2.186517 2.828219,2.186517 1.049514,0 1.778,-0.263172 2.09797,-1.340908 L 17.3102,57.981625 h -2.129014 l -2.593269,9.214203 h -0.05891 L 10.110359,57.981625 H 5.8837282 l 0.669925,2.713567 -1.806575,6.35388 H 4.6888699 Z M 16.377103,69.136811 H 16.068422 V 68.60835 H 16.4212 c 0.1778,0 0.367595,0.03986 0.367595,0.251178 0,0.259291 -0.193323,0.277283 -0.411692,0.277283 m -0.306564,0.951442 v -0.735542 h 0.296333 l 0.446617,0.735542 h 0.287867 l -0.481189,-0.747889 c 0.248355,-0.0314 0.438855,-0.161573 0.438855,-0.465667 0,-0.334433 -0.198614,-0.484717 -0.599369,-0.484717 h -0.6477 v 1.698273 z m 0.312208,0.375355 c -0.673452,0 -1.198033,-0.519642 -1.198033,-1.227667 0,-0.695677 0.524581,-1.220611 1.198033,-1.220611 0.663928,0 1.189567,0.524934 1.189567,1.220611 0,0.708025 -0.525639,1.227667 -1.189567,1.227667 m -1.492955,-1.227667 c 0,0.8509 0.683683,1.4732 1.492955,1.4732 0.800806,0 1.483784,-0.6223 1.483784,-1.4732 0,-0.844197 -0.682978,-1.464733 -1.483784,-1.464733 -0.809272,0 -1.492955,0.620536 -1.492955,1.464733 m -27.424238,1.401939 h 1.923697 l 0.7881053,-2.33433 h 4.3141194 l 0.7291916,2.33433 h 4.19699714 L -3.9922855,60.287381 c -0.4085166,-1.283759 -0.9630833,-2.418998 -2.5082499,-2.418998 -1.7483667,0 -2.3011694,1.048456 -2.7689527,2.535767 z m -12.267847,0 h 4.200877 v -6.357408 h 2.88537 v 6.357408 h 4.198761 V 57.981625 h -4.198761 v 4.433005 h -2.88537 v -4.433005 h -4.200877 z m 15.5624382,-4.082344 1.6023166,-5.133622 h 0.059972 l 1.5148278,5.133622 z"
         style="fill:#f89728;fill-opacity:1;fill-rule:nonzero;stroke:none;stroke-width:0.58019096"
         id="path622"
         inkscape:connector-curvature="0" />
      <path
         d="M 31.497193,58.146407 H 19.309779 v 12.3444 h 12.187414 z"
         style="fill:none;stroke:#f89728;stroke-width:0.61500239;stroke-linecap:butt;stroke-linejoin:miter;stroke-miterlimit:4;stroke-dasharray:none;stroke-opacity:1"
         id="path626"
         inkscape:connector-curvature="0" />
      <path
         d="m 25.340304,69.213046 c 3.312936,0.02857 5.433483,-1.506361 5.443714,-3.618089 0.0092,-1.922991 -2.542117,-3.436761 -5.443714,-3.481916 -3.442405,-0.05786 -5.322005,1.558925 -5.322005,3.481916 0,1.921581 2.267302,3.59022 5.322005,3.618089 z"
         style="fill:none;stroke:#f89728;stroke-width:0.51288885;stroke-linecap:butt;stroke-linejoin:miter;stroke-miterlimit:4;stroke-dasharray:none;stroke-opacity:1"
         id="path630"
         inkscape:connector-curvature="0" />
      <path
         d="m 29.236064,68.134111 c 0,0 -1.576917,-1.342672 -3.969103,-1.382889 -2.204155,-0.03493 -3.755672,1.212145 -3.755672,1.212145"
         style="fill:none;stroke:#f89728;stroke-width:0.51288885;stroke-linecap:butt;stroke-linejoin:miter;stroke-miterlimit:4;stroke-dasharray:none;stroke-opacity:1"
         id="path634"
         inkscape:connector-curvature="0" />
      <path
         d="m 24.496213,62.21016 v 4.4831"
         style="fill:none;stroke:#f89728;stroke-width:0.25586423;stroke-linecap:butt;stroke-linejoin:miter;stroke-miterlimit:4;stroke-dasharray:none;stroke-opacity:1"
         id="path638"
         inkscape:connector-curvature="0" />
      <path
         d="m 23.382423,62.314759 v 4.68383"
         style="fill:none;stroke:#f89728;stroke-width:0.3539165;stroke-linecap:butt;stroke-linejoin:miter;stroke-miterlimit:4;stroke-dasharray:none;stroke-opacity:1"
         id="path642"
         inkscape:connector-curvature="0" />
      <path
         d="M 22.811769,62.519053 V 67.17325"
         style="fill:none;stroke:#f89728;stroke-width:0.46357259;stroke-linecap:butt;stroke-linejoin:miter;stroke-miterlimit:4;stroke-dasharray:none;stroke-opacity:1"
         id="path646"
         inkscape:connector-curvature="0" />
      <path
         d="m 21.735938,62.871548 v 4.964289"
         style="fill:none;stroke:#f89728;stroke-width:0.56974751;stroke-linecap:butt;stroke-linejoin:miter;stroke-miterlimit:4;stroke-dasharray:none;stroke-opacity:1"
         id="path650"
         inkscape:connector-curvature="0" />
      <path
         d="m 23.939953,62.27292 v 4.516261"
         style="fill:none;stroke:#f89728;stroke-width:0.32954848;stroke-linecap:butt;stroke-linejoin:miter;stroke-miterlimit:4;stroke-dasharray:none;stroke-opacity:1"
         id="path654"
         inkscape:connector-curvature="0" />
      <path
         d="m 20.974221,63.575728 c 0,0 -1.928989,1.942747 0.02963,4.012494 v -4.069997 z"
         style="fill:#f89728;fill-opacity:1;fill-rule:nonzero;stroke:none;stroke-width:0.58019096"
         id="path658"
         inkscape:connector-curvature="0" />
      <path
         d="m 20.974221,63.575728 c 0,0 -1.928989,1.942747 0.02752,4.012494 v -4.069997"
         style="fill:none;stroke:#f89728;stroke-width:0.5331955;stroke-linecap:butt;stroke-linejoin:miter;stroke-miterlimit:4;stroke-dasharray:none;stroke-opacity:1"
         id="path662"
         inkscape:connector-curvature="0" />
      <path
         d="m 25.388917,64.792741 c -0.203553,0 -0.388408,-0.08008 -0.529519,-0.205317 -0.09596,0.11677 -0.155928,0.264584 -0.155928,0.428625 0,0.377825 0.307269,0.683331 0.685447,0.683331 0.378531,0 0.685447,-0.305506 0.685447,-0.683331 0,-0.164041 -0.06103,-0.311855 -0.156633,-0.428625 -0.140053,0.125236 -0.324556,0.205317 -0.528814,0.205317 M 25.9964,58.288577 h -1.214261 l 0.155222,6.141861 c 0.12065,0.108303 0.277637,0.175684 0.451556,0.175684 0.174625,0 0.331611,-0.06738 0.452261,-0.175684 z"
         style="fill:#f89728;fill-opacity:1;fill-rule:nonzero;stroke:none;stroke-width:0.58019096"
         id="path666"
         inkscape:connector-curvature="0" />
      <path
         d="m 21.270413,63.149996 v 4.710642"
         style="fill:none;stroke:#f89728;stroke-width:0.61210144;stroke-linecap:butt;stroke-linejoin:miter;stroke-miterlimit:4;stroke-dasharray:none;stroke-opacity:1"
         id="path670"
         inkscape:connector-curvature="0" />
      <path
         d="m 22.257344,62.602837 v 4.905022"
         style="fill:none;stroke:#f89728;stroke-width:0.43688381;stroke-linecap:butt;stroke-linejoin:miter;stroke-miterlimit:4;stroke-dasharray:none;stroke-opacity:1"
         id="path674"
         inkscape:connector-curvature="0" />
      <path
         d="m -65.251828,80.012103 c -0.720725,0 -0.995892,-0.599722 -0.995892,-1.237544 0,-0.687212 0.186267,-1.385006 0.962025,-1.385006 0.721431,0 0.964495,0.639939 0.964495,1.320447 0,0.508706 -0.201789,1.302103 -0.930628,1.302103 m -0.995892,-2.864908 v -0.6223 h -1.085144 v 5.981347 h 1.133828 v -2.227086 h 0.01552 c 0.138289,0.235655 0.422275,0.66428 1.216025,0.66428 1.277408,0 1.811161,-1.133827 1.811161,-2.314222 0,-1.490486 -0.842433,-2.217561 -1.787172,-2.217561 -0.761647,0 -1.075972,0.395817 -1.287286,0.735542 z m 32.276344,3.684764 1.553986,-4.308828 h -1.205089 l -0.915811,3.173236 h -0.01517 l -0.891117,-3.173236 h -1.260828 l 1.545167,4.308828 z m -8.308975,0 v -2.980267 c 0,-0.946503 -0.656872,-1.440039 -1.498247,-1.440039 -0.817386,0 -1.141236,0.484717 -1.295047,0.744361 h -0.01588 v -0.631119 h -1.08585 v 4.307064 h 1.134533 v -2.470856 c 0,-0.655814 0.388761,-0.994128 0.890059,-0.994128 0.719666,0 0.737658,0.5334 0.737658,0.849489 v 2.615495 z m -11.054644,-7.06e-4 h 1.135944 v -4.308475 h -1.135944 z m 0,-4.814711 h 1.135944 v -1.055158 h -1.135944 z m -4.424539,4.740628 1.480961,-4.234039 h -1.198386 l -0.881944,3.173236 h -0.01623 l -0.922161,-3.173236 h -1.262239 l 1.586442,4.485216 c -0.105128,0.589139 -0.330906,0.646289 -0.744009,0.646289 l -0.219075,-0.01552 v 0.904875 l 0.509764,0.01623 c 0.987073,0 1.133475,-0.20955 1.666875,-1.803047 m -12.436122,-0.745067 c -0.720019,0 -0.995539,-0.599722 -0.995539,-1.237544 0,-0.687212 0.186267,-1.385006 0.963437,-1.385006 0.721077,0 0.963083,0.639939 0.963083,1.320447 0,0.508706 -0.202495,1.302103 -0.930981,1.302103 m -0.995539,-2.864908 v -0.6223 h -1.084438 v 5.981347 h 1.133122 V 80.27916 h 0.01552 c 0.138289,0.235655 0.422275,0.66428 1.213908,0.66428 1.279878,0 1.813631,-1.133827 1.813631,-2.314222 0,-1.490486 -0.841022,-2.217561 -1.787878,-2.217561 -0.762,0 -1.075619,0.395817 -1.28658,0.735542 z m -3.177469,1.586794 v 0.551039 c 0,0.524581 -0.512233,0.847372 -1.01353,0.847372 -0.217312,0 -0.525992,-0.120297 -0.525992,-0.515761 0,-0.470958 0.348192,-0.575733 0.768703,-0.646994 0.469547,-0.07338 0.655814,-0.146756 0.770819,-0.235656 m 1.10737,1.254125 v -2.33045 c 0,-1.059391 -1.109134,-1.246011 -1.715912,-1.246011 -0.882297,0 -1.796344,0.18662 -1.925108,1.50495 h 1.091847 c 0.0314,-0.251178 0.12947,-0.598311 0.695678,-0.598311 0.291042,0 0.744361,0.02399 0.744361,0.502003 0,0.242358 -0.218016,0.313619 -0.39758,0.338314 l -1.017764,0.154869 c -0.720372,0.104775 -1.255536,0.534106 -1.255536,1.374775 0,0.890411 0.664633,1.255183 1.310922,1.255183 0.769055,0 1.133475,-0.357364 1.393119,-0.624416 0.02293,0.244475 0.04022,0.30868 0.104423,0.511175 h 1.224491 V 80.65945 c -0.1397,-0.04727 -0.252941,-0.16263 -0.252941,-0.671336"
         style="fill:#000000;fill-opacity:1;fill-rule:nonzero;stroke:none;stroke-width:0.58019096"
         id="path678"
         inkscape:connector-curvature="0" />
      <path
         inkscape:connector-curvature="0"
         id="path680"
         style="fill:#000000;fill-opacity:1;fill-rule:nonzero;stroke:none;stroke-width:0.58019096"
         d="m -62.332063,80.83157 h 1.135945 v -5.813777 h -1.135945 z" />
      <path
         d="M -47.22379,80.832099 V 77.85148 c 0,-0.946503 -0.655814,-1.439686 -1.497542,-1.439686 -0.817739,0 -1.140883,0.484716 -1.295752,0.744008 h -0.01623 v -0.63112 h -1.086203 v 4.307417 h 1.135239 v -2.471208 c 0,-0.655461 0.388761,-0.993775 0.889353,-0.993775 0.720019,0 0.738011,0.533047 0.738011,0.849489 v 2.615494 z m 7.944908,-3.464983 c 0.873478,0 1.034697,0.760236 1.034697,1.309511 0,0.551391 -0.161219,1.311275 -1.034697,1.311275 -0.875241,0 -1.036461,-0.759884 -1.036461,-1.311275 0,-0.549275 0.16122,-1.309511 1.036461,-1.309511 m 0,3.576108 c 1.1557,0 2.200275,-0.711553 2.200275,-2.266597 0,-1.55187 -1.044575,-2.264833 -2.200275,-2.264833 -1.158522,0 -2.20098,0.712963 -2.20098,2.264833 0,1.555044 1.042458,2.266597 2.20098,2.266597 m 9.872486,-2.209447 v 0.551039 c 0,0.524933 -0.512586,0.847725 -1.012119,0.847725 -0.218723,0 -0.527756,-0.120298 -0.527756,-0.515761 0,-0.470959 0.348897,-0.576087 0.769761,-0.647348 0.468489,-0.07338 0.655461,-0.146402 0.770114,-0.235655 m 1.105958,1.254125 v -2.330097 c 0,-1.059745 -1.107369,-1.246011 -1.714852,-1.246011 -0.881945,0 -1.79705,0.186266 -1.92652,1.504597 h 1.093259 c 0.0314,-0.251178 0.129469,-0.597959 0.69603,-0.597959 0.291042,0 0.744714,0.02399 0.744714,0.50165 0,0.242359 -0.218017,0.313973 -0.397581,0.338314 l -1.018116,0.155222 c -0.720372,0.104775 -1.255889,0.533753 -1.255889,1.374423 0,0.890411 0.664633,1.255183 1.311628,1.255183 0.768702,0 1.132769,-0.357011 1.391002,-0.624064 0.02434,0.244122 0.04057,0.308681 0.104775,0.511175 h 1.224139 v -0.171097 c -0.138994,-0.04727 -0.252589,-0.162278 -0.252589,-0.671336 m 2.28212,-3.46322 v -1.166283 h -1.133122 v 1.166283 h -0.584553 v 0.80892 h 0.584553 v 2.61373 c 0,0.558448 0.1778,0.931686 1.157463,0.931686 h 0.144992 l 0.536928,-0.01729 V 80.00342 l -0.236714,0.01729 c -0.460375,0 -0.469547,-0.09701 -0.469547,-0.348897 v -2.338211 h 0.706261 v -0.80892 z m 1.45415,4.306711 h 1.13665 v -4.308474 h -1.13665 z m 0,-4.814711 h 1.13665 v -1.055158 h -1.13665 z m 4.169833,1.350434 c 0.873478,0 1.035755,0.760236 1.035755,1.309511 0,0.551391 -0.162277,1.311275 -1.035755,1.311275 -0.875242,0 -1.036108,-0.759884 -1.036108,-1.311275 0,-0.549275 0.160866,-1.309511 1.036108,-1.309511 m 0,3.576108 c 1.1557,0 2.200628,-0.711553 2.200628,-2.266597 0,-1.55187 -1.044928,-2.264833 -2.200628,-2.264833 -1.157464,0 -2.200275,0.712963 -2.200275,2.264833 0,1.555044 1.042811,2.266597 2.200275,2.266597 m 6.88728,-0.111125 V 77.85148 c 0,-0.946503 -0.657225,-1.439686 -1.499305,-1.439686 -0.816328,0 -1.140531,0.484716 -1.293989,0.744008 h -0.01552 v -0.63112 h -1.086909 v 4.307417 h 1.134534 v -2.471208 c 0,-0.655461 0.388408,-0.993775 0.890058,-0.993775 0.720372,0 0.735895,0.533047 0.735895,0.849489 v 2.615494 z m 3.39725,-4.860219 -0.390525,-1.038931 h -0.636411 v 1.713442 h 0.44062 v -1.168047 h 0.0085 l 0.408517,1.168047 h 0.3347861 l 0.4078111,-1.168047 h 0.00917 v 1.168047 h 0.4409722 v -1.713442 h -0.6364111 z m -1.348669,-0.685448 v -0.353483 h -1.418872 v 0.353483 h 0.476602 v 1.359959 h 0.46355 v -1.359959 z"
         style="fill:#000000;fill-opacity:1;fill-rule:nonzero;stroke:none;stroke-width:0.58019096"
         id="path684"
         inkscape:connector-curvature="0" />
    </g>
  </g>
</svg>
